<svg version="1.1" id="Layer_1" xmlns="http://www.w3.org/2000/svg" xmlns:xlink="http://www.w3.org/1999/xlink" x="0px" y="0px"
	 viewBox="0 0 120 120" enable-background="new 0 0 120 120" xml:space="preserve">
<g>
	<path fill="#FFFFFF" d="M60,16.5C36,16.6,16.6,36,16.5,60c0,23.9,19.5,43.5,43.4,43.5c24,0,43.5-19.5,43.5-43.5
		C103.4,36,83.9,16.5,60,16.5z M60.1,98.6C38.9,98.7,21.5,81.4,21.4,60C21.3,38.8,38.6,21.5,60,21.4C81.2,21.3,98.5,38.7,98.6,60
		C98.6,81.2,81.4,98.4,60.1,98.6z"/>
</g>
<path fill="none" stroke="#FFFFFF" stroke-width="5" stroke-linecap="round" stroke-miterlimit="10" d="M33.7,59.6
	c0,0,5.2-15.5,12.1-15.5c12,0,17.6,32.1,28.1,32.2C80.8,76.5,86.7,60,86.7,60"/>
</svg>
