<?xml version="1.0" encoding="utf-8"?>
<!-- Generator: Adobe Illustrator 18.0.0, SVG Export Plug-In . SVG Version: 6.00 Build 0)  -->
<!DOCTYPE svg PUBLIC "-//W3C//DTD SVG 1.1//EN" "http://www.w3.org/Graphics/SVG/1.1/DTD/svg11.dtd">
<svg version="1.1" id="Layer_1" xmlns="http://www.w3.org/2000/svg" xmlns:xlink="http://www.w3.org/1999/xlink" x="0px" y="0px"
	 viewBox="0 0 120 120" enable-background="new 0 0 120 120" xml:space="preserve">
<g>
	<g>
		<path fill="#FFFFFF" d="M77,60.3c2.2-1,4.4-2,6.6-3.1c1.1-0.5,2.3-1,3.4-1.6c1.8-0.9,2.3-3,1.5-4.6c-1.6-3.3-3.1-6.7-4.7-10.1
			c-1-2.2-2.1-4.4-3.1-6.7c-0.9-2.2-3.2-2.7-4.9-1.9c-2,1-4,1.9-6,2.8c-2.2,1-4.3,2-6.5,3.1c-4.3,2-8.6,4-13,6c-2,0.9-4,1.9-6,2.8
			c-2.6,1.2-5.3,2.5-7.9,3.7c-1.8,0.8-2.5,2.8-1.7,4.6c0.8,1.8,1.7,3.6,2.5,5.4c1.8,3.9,3.6,7.8,5.4,11.7c0.6,1.3,1.7,2,3.1,2.1
			c0.5-0.1,1-0.2,1.5-0.4c2.7-1.3,5.4-2.5,8.2-3.8c2-0.9,4.1-1.9,6.1-2.9C66.7,65,71.9,62.7,77,60.3z M52.5,51.1
			c-3.6,1.7-7.1,3.3-10.7,5c-0.4,0.2-0.7,0.3-1.1,0.3c-0.9,0-1.5-0.7-1.5-1.6c0-0.6,0.3-1,0.8-1.3c0.5-0.2,0.9-0.5,1.4-0.7
			c5-2.3,10-4.7,14.9-7c3.5-1.6,7-3.3,10.6-4.9c2.9-1.4,5.9-2.7,8.8-4.1c0.1-0.1,0.3-0.1,0.4-0.2c0.7-0.2,1.5,0,1.9,0.7
			c0.4,0.6,0.2,1.6-0.4,2.1c-0.2,0.1-0.4,0.3-0.6,0.4c-4.4,2.1-8.9,4.1-13.3,6.2C59.9,47.6,56.2,49.3,52.5,51.1z"/>
		<path fill="#FFFFFF" d="M30.7,61c-0.5,0.3-1.1,0.3-1.6,0.1c-1.1-0.4-5.3-2.1-6.5-1.6l0,0c-1.5,0.7-2.1,2.4-1.5,3.9l6.3,13.8
			c0.7,1.5,2.4,2.1,3.9,1.5l0,0c1-0.4,2.8-4.8,3.3-6.1c0.2-0.5,0.5-0.7,0.9-0.9c0.9-0.4,2.7-1.2,2.7-1.2l-5-10.6
			C33.3,59.8,31.3,60.7,30.7,61z"/>
		<path fill="#FFFFFF" d="M97.1,81h-24c0-1,0-0.5,0-0.8c0-1.3,0-2.8,0-4.1c0-0.5,0.2-0.9,0.6-1.3c0.9-0.7,1.7-1.7,2.2-2.8
			c1-1.8,1.2-3.8,0.9-5.8c-0.1-0.7-0.3-1.4-0.7-2.1c-5.5,2.6-11,5.1-16.5,7.7c1.5,2.8,3.7,4.3,6.7,5c0,0.4,0,0.7,0,1
			c0,2.1,0.1,4.2,0,6.3c0,1.1,0.4,2.3,1.1,3c0.7,0.9,1.8,1.8,3,1.8h26.6c2.1,0,3.9-1.9,3.9-4S99.3,81,97.1,81z"/>
	</g>
	<circle fill="#CE202A" cx="46.6" cy="67" r="1.6"/>
</g>
</svg>
