<?xml version="1.0" encoding="utf-8"?>
<!-- Generator: Adobe Illustrator 18.0.0, SVG Export Plug-In . SVG Version: 6.00 Build 0)  -->
<!DOCTYPE svg PUBLIC "-//W3C//DTD SVG 1.1//EN" "http://www.w3.org/Graphics/SVG/1.1/DTD/svg11.dtd">
<svg version="1.1" id="Layer_1" xmlns="http://www.w3.org/2000/svg" xmlns:xlink="http://www.w3.org/1999/xlink" x="0px" y="0px"
	 viewBox="0 0 120 120" enable-background="new 0 0 120 120" xml:space="preserve">
<circle display="none" fill="#009245" cx="60" cy="60" r="57.6"/>
<g>
	<path fill="#FFFFFF" d="M71.4,49.9c0.6-1.1,1.1-2.2,1.6-3.3c0.9-1.9,0-3.8-1.7-4.5c-3.3-1.6-6.6-3.3-9.9-4.9
		c-2.2-1.1-4.4-2.1-6.6-3.3c-2.1-1.1-4.2-0.2-5,1.6c-1,2-2,4-2.9,6c-1.1,2.1-2.1,4.3-3.2,6.4c-2.1,4.3-4.2,8.5-6.4,12.8
		c-1,2-2,4-3,6c-1.3,2.6-2.6,5.2-3.9,7.8c-0.9,1.8-0.2,3.7,1.6,4.6c1.8,0.9,3.5,1.8,5.3,2.6c3.9,1.9,7.7,3.9,11.6,5.8
		c1.3,0.6,2.5,0.5,3.7-0.4c0.3-0.4,0.6-0.8,0.9-1.2c1.4-2.7,2.7-5.4,4-8.1c1-2,2-4,3-6c2.5-5.1,5.1-10.2,7.6-15.2
		C69.2,54.2,70.3,52.1,71.4,49.9z M55.5,39.7c-0.1,0.2-0.2,0.5-0.3,0.7c-2.2,4.4-4.4,8.8-6.5,13.1c-1.8,3.7-3.6,7.3-5.5,11
		c-1.8,3.5-3.5,7.1-5.3,10.6c-0.2,0.3-0.4,0.7-0.7,1c-0.7,0.6-1.6,0.4-2.2-0.4c-0.4-0.4-0.4-1-0.2-1.5c0.2-0.5,0.4-0.9,0.7-1.4
		c2.4-4.9,4.9-9.8,7.3-14.8c1.7-3.5,3.5-7,5.2-10.4c1.4-2.9,2.9-5.8,4.4-8.7c0.1-0.1,0.1-0.3,0.2-0.4c0.4-0.6,1.2-0.9,1.9-0.7
		C55.2,38.1,55.7,39,55.5,39.7z"/>
	<path fill="#FFFFFF" d="M44.2,88.5l-10.5-5.2c0,0-1.1,2-1.3,2.6c-0.2,0.6-0.6,0.9-1.2,1.1c-1.1,0.4-5.5,1.7-6,2.8l0,0
		c-0.7,1.4-0.1,3.2,1.3,4l13.5,6.8c1.4,0.7,3.2,0.1,4-1.3l0,0c0.5-0.9-0.8-5.5-1.2-6.8c-0.2-0.5-0.1-0.9,0.2-1.3
		C43.4,90.3,44.2,88.5,44.2,88.5z"/>
	<path fill="#FFFFFF" d="M96.1,81h-24c0-1,0-0.5,0-0.8c0-0.9,0-1.9,0-2.9c1-0.8,1.8-1.9,2.5-3.2c2.3-4.8,0.3-10.5-4.5-12.9
		l-8.4,17.3c1.2,0.6,2.5,0.9,3.7,0.9c0,1.5,0,3.1,0,4.6c0,1.1,0.4,2.3,1.1,3c0.7,0.9,1.8,1.8,3,1.8h26.6c2.1,0,3.9-1.9,3.9-4
		C100,82.9,98.3,81,96.1,81z"/>
</g>
</svg>
