<?xml version="1.0" encoding="utf-8"?>
<!-- Generator: Adobe Illustrator 18.0.0, SVG Export Plug-In . SVG Version: 6.00 Build 0)  -->
<!DOCTYPE svg PUBLIC "-//W3C//DTD SVG 1.1//EN" "http://www.w3.org/Graphics/SVG/1.1/DTD/svg11.dtd">
<svg version="1.1" id="Layer_1" xmlns="http://www.w3.org/2000/svg" xmlns:xlink="http://www.w3.org/1999/xlink" x="0px" y="0px"
	 viewBox="0 0 120 120" enable-background="new 0 0 120 120" xml:space="preserve">
<circle display="none" fill="#CE202A" cx="60" cy="60" r="57.6"/>
<g>
	<g id="CXRyUi.tif">
		<g>
			<path fill="#FFFFFF" d="M70.1,24.5c-0.6,0.1-1.2,0.2-1.7,0.3C65,25.7,63,29,63.6,32.7c0.5,3.2,2.2,5.7,4.2,8.2
				c3.7,4.4,7.4,8.7,10.8,13.3c3.5,4.7,6.1,10,7.3,15.8c2.6,13.4-5.7,27.1-19.1,30.2C70.8,97.4,74,94,75,89.3
				c3-13.8-12.3-28.5-16.5-31.9c-0.1-0.1-0.3-0.1-0.5-0.2c0.2,1.2,0.4,2.4,0.5,3.6c0.4,3.8-0.9,7-3.3,9.9c-2,2.3-4.1,4.5-6.1,6.7
				c-6.8,7.5-3.8,17.4,2,22.2c0.3,0.2,0.5,0.5,1,0.9c-2.8-0.3-5.1-1.2-7.3-2.5c-6.7-4-10.5-9.9-11.3-17.7c-0.5-4.7,0.7-8.8,3.1-12.7
				c1.2-1.9,2.6-3.8,3.8-5.7c1.2-2,1.9-4.1,1.2-6.5c-0.8-2.6-2.4-4.3-5.2-4.8c-0.2,0-0.4-0.1-0.8-0.2c4-3.3,8.4-3.6,13.3-2.2
				c-0.3-0.6-0.4-0.9-0.6-1.3c-3.2-6.9-2.1-17.3,5.5-22.3c5.2-3.4,10.6-3.2,15.9-0.1C70,24.3,70,24.4,70.1,24.5z"/>
		</g>
	</g>
	<path fill="#FFFFFF" d="M62.4,71.6c0-0.1-0.1-0.1-0.2-0.1c0,0.6-0.1,1.3-0.1,1.9c-0.2,2-1.2,3.5-2.8,4.6c-1.3,0.9-2.6,1.8-3.8,2.7
		c-1.5,1-2.4,2.4-2.8,3.8c-0.1,0.4-0.3,0.8-0.4,1.2c-0.9,4.1,1.6,8.1,5.7,9c2.8,0.6,6.3-0.1,7.8-2.4C72.2,82.5,64.1,73.7,62.4,71.6z
		"/>
</g>
<g>
	<path fill="#FFFFFF" d="M98.3,73.5L98.3,73.5c-1.5,0-2.7-1.2-2.7-2.7V45.2c0-1.5,1.2-2.7,2.7-2.7l0,0c1.5,0,2.7,1.2,2.7,2.7v25.6
		C101,72.3,99.8,73.5,98.3,73.5z"/>
	<circle fill="#FFFFFF" cx="98.2" cy="80.2" r="3.2"/>
</g>
</svg>
