<?xml version="1.0" encoding="utf-8"?>
<!-- Generator: Adobe Illustrator 18.0.0, SVG Export Plug-In . SVG Version: 6.00 Build 0)  -->
<!DOCTYPE svg PUBLIC "-//W3C//DTD SVG 1.1//EN" "http://www.w3.org/Graphics/SVG/1.1/DTD/svg11.dtd">
<svg version="1.1" id="Layer_1" xmlns="http://www.w3.org/2000/svg" xmlns:xlink="http://www.w3.org/1999/xlink" x="0px" y="0px"
	 viewBox="0 0 120 120" enable-background="new 0 0 120 120" xml:space="preserve">
<circle display="none" fill="#CE202A" cx="60" cy="60" r="57.6"/>
<g>
	<g>
		<path fill="#FFFFFF" d="M66.9,69.8c0,3.8-3.1,6.9-6.9,6.9s-6.9-3.1-6.9-6.9s7.3-15.3,7.3-15.3S66.9,66,66.9,69.8z"/>
	</g>
	<g>
		<path fill="#FFFFFF" d="M60,82.1c-7.6,0-13.8-6.2-13.8-13.8c0-7.1,12.1-26.4,13.5-28.6l1.2-1.9l1.1,1.9
			c0.5,0.9,11.9,21.3,11.9,28.5C73.8,75.9,67.6,82.1,60,82.1z M60.7,43.1c-4.2,6.8-11.9,20.4-11.9,25.2c0,6.2,5,11.2,11.2,11.2
			s11.2-5,11.2-11.2C71.2,63.4,64.4,49.9,60.7,43.1z"/>
	</g>
</g>
</svg>
