<?xml version="1.0" encoding="utf-8"?>
<!-- Generator: Adobe Illustrator 18.0.0, SVG Export Plug-In . SVG Version: 6.00 Build 0)  -->
<!DOCTYPE svg PUBLIC "-//W3C//DTD SVG 1.1//EN" "http://www.w3.org/Graphics/SVG/1.1/DTD/svg11.dtd">
<svg version="1.1" id="Layer_1" xmlns="http://www.w3.org/2000/svg" xmlns:xlink="http://www.w3.org/1999/xlink" x="0px" y="0px"
	 viewBox="0 0 120 120" enable-background="new 0 0 120 120" xml:space="preserve">
<circle display="none" fill="#CE202A" cx="60" cy="60" r="57.6"/>
<path fill="#FFFFFF" d="M102.3,53.7l-6.5-12.2c-0.3-0.6-0.9-0.9-1.5-1c0,0,0,0-0.1,0c-0.2-0.1-0.5-0.2-0.7-0.3L60.7,25.2
	c-0.5-0.2-1.1-0.2-1.6,0L26.5,40.4c-0.5,0.2-0.9,0.7-1,1.2l-7.6,11.9c-0.3,0.5-0.4,1-0.2,1.6s0.6,1,1.1,1.2l7,3l0,17.3
	c0,0.7,0.4,1.4,1,1.7L59,94.7c0.3,0.1,0.6,0.3,0.9,0.3c0,0,0,0,0,0c0.1,0,0.1-0.1,0.2-0.1c0,0,0.1,0,0.1,0c0.3,0,0.6-0.1,0.9-0.2
	l32.3-16.3c0.6-0.3,1-1,1-1.7l0.4-16.9l6.7-3.5c0.4-0.2,0.8-0.6,0.9-1.1S102.5,54.1,102.3,53.7z M59.2,29.3l-0.9,26.6l-19.1-9.7
	l-7.6-4L59.2,29.3z M29.5,75.4l-0.1-29.9l8.2,4.1L58,60.2v0.1c0,0.2-0.2,0.4-0.1,0.6L58,89.8L29.5,75.4z M90.6,75.4L62.1,89.8
	l0.2-20l2.1,3.9c0.2,0.4,0.6,0.8,1.1,0.9c0.2,0.1,0.4,0.1,0.5,0.1c0.3,0,0.6-0.1,0.9-0.2l24-12.7L90.6,75.4z M66.8,70.3L62.4,62
	l0-0.7l31-16.4l4.7,8.9L66.8,70.3z"/>
</svg>
