<?xml version="1.0" encoding="utf-8"?>
<!-- Generator: Adobe Illustrator 18.0.0, SVG Export Plug-In . SVG Version: 6.00 Build 0)  -->
<!DOCTYPE svg PUBLIC "-//W3C//DTD SVG 1.1//EN" "http://www.w3.org/Graphics/SVG/1.1/DTD/svg11.dtd">
<svg version="1.1" id="Layer_1" xmlns="http://www.w3.org/2000/svg" xmlns:xlink="http://www.w3.org/1999/xlink" x="0px" y="0px"
	 viewBox="0 0 120 120" enable-background="new 0 0 120 120" xml:space="preserve">
<g display="none">
	<path display="inline" d="M161.7,75.1c-1.7,0-2.6,1.2-2.6,2.6c0,1.5,1.1,2.6,2.6,2.6c1.6,0,2.6-1.2,2.6-2.6
		C164.4,76.3,163.4,75.1,161.7,75.1z"/>
	<path display="inline" d="M198.8,74.3c-2.2-5.6-5.3-10.3-8.6-15c-3-4.3-6-8.5-9.1-12.8c-0.6-0.8-0.8-1.3-0.8-2.4
		c0-5.5,0-12.2,0-16.2h2c0.2,0,0.4-0.1,0.5-0.1c1.4,0,2.6-1,2.6-2.4c0-1.4-1.2-2.4-2.6-2.4h-28.6c-1.4,0-2.6,1.1-2.6,2.5
		s1.2,2.5,2.6,2.5h0.6c0.2,0,0.4,0,0.6,0h1.5c0,4.3,0,8.6,0,12.8c0,4.8,0.4,4.8-2.2,8.4c-3.5,4.9-6.8,9.7-10.1,14.7
		c-2.5,3.7-4.6,7.6-6,12.1c-1.9,6.4,0,12.8,4.9,16c2.9,1.9,6,2.6,9.2,2.6c10.7,0.1,21.3,0.1,32,0c2,0,3.9-0.3,5.8-0.8
		c1.6-0.5,3.3-1.3,4.7-2.3C200.3,87.8,201.3,80.5,198.8,74.3z M162,82.6c-1,0-2-0.3-3-1.3V86h-2V73h1.7l0.2,1.3c0.7-1,2-1.5,3-1.5
		c2.9,0,4.8,2.1,4.8,4.9C166.7,80.5,165,82.6,162,82.6z M180,82h-2v-5h-7v5h-2V69h2v6h7v-6h2V82z M155.4,59c0,0,0.2-0.5,3.4-5.1
		c1.2-1.7,2.3-3.4,3.5-5.2c0.7-1.2,1-2.1,1-3.5c0-5.9,0-11.2,0-17.2h11.6c0,4,0.1,10.7,0,16.3c0,2.5,0.5,4.4,1.8,6.3
		c1.7,2.5,3.5,4.6,5.3,7.1c0.4,0.5,1.2,1.3,1.2,1.3H155.4z"/>
</g>
<circle display="none" fill="#CE202A" cx="60" cy="60" r="57.6"/>
<g>
	<g>
		<path fill="#FFFFFF" d="M42.6,32h-6.2c-0.6,0-1-0.5-1-1v-0.2c0-0.6,0.5-1,1-1h6.2c0.6,0,1,0.5,1,1V31C43.6,31.5,43.2,32,42.6,32z"
			/>
		<path fill="#FFFFFF" d="M42.6,38.5h-6.2c-0.6,0-1-0.5-1-1v-0.2c0-0.6,0.5-1,1-1h6.2c0.6,0,1,0.5,1,1v0.2
			C43.6,38.1,43.2,38.5,42.6,38.5z"/>
		<path fill="#FFFFFF" d="M42.6,45.1h-6.2c-0.6,0-1-0.5-1-1v-0.2c0-0.6,0.5-1,1-1h6.2c0.6,0,1,0.5,1,1v0.2
			C43.6,44.7,43.2,45.1,42.6,45.1z"/>
		<path fill="#FFFFFF" d="M42.6,51.9h-6.2c-0.6,0-1-0.5-1-1v-0.2c0-0.6,0.5-1,1-1h6.2c0.6,0,1,0.5,1,1v0.2
			C43.6,51.4,43.2,51.9,42.6,51.9z"/>
		<path fill="#FFFFFF" d="M42.6,58.9h-6.2c-0.6,0-1-0.5-1-1v-0.2c0-0.6,0.5-1,1-1h6.2c0.6,0,1,0.5,1,1v0.2
			C43.6,58.5,43.2,58.9,42.6,58.9z"/>
	</g>
	<g>
		<g>
			<path fill="#FFFFFF" d="M60,99.4c-6.8,0-12.4-5.6-12.4-12.4V37c0-6.8,5.6-12.4,12.4-12.4S72.4,30.2,72.4,37v50
				C72.4,93.8,66.8,99.4,60,99.4z M60,29.6c-4.1,0-7.4,3.3-7.4,7.4v50c0,4.1,3.3,7.4,7.4,7.4s7.4-3.3,7.4-7.4V37
				C67.4,32.9,64.1,29.6,60,29.6z"/>
		</g>
		<path fill="#FFFFFF" d="M60,90L60,90c-2.1,0-3.8-1.7-3.8-3.8v-33c0-2.1,1.7-3.7,3.7-3.7h0c2.1,0,3.7,1.7,3.7,3.7v33
			C63.8,88.3,62.1,90,60,90z"/>
	</g>
</g>
</svg>
