<svg xmlns="http://www.w3.org/2000/svg" viewBox="0 0 120 120" enable-background="new 0 0 120 120"><g fill="#fff"><path d="M101.3 39.3c.9-1.5.6-2.9-.7-4.1-1.3-1.2-2.7-1.4-4.1-.4-1.5 1.1-2.8 2.3-4.2 3.6-1.9 1.8-3.7 3.7-5.8 5.8-3.4-3.5-6.5-6.6-9.4-9.7-1.7-1.9-3.7-2.6-6.2-2.6-4.7.1-9.3.1-14 0-2.3 0-4.1.7-5.6 2.6-3 3.8-6.2 7.4-9.3 11.1-.6.8-1.3 1.6-1.7 2.5-.6 1.5-.4 3 1.1 4 1.4 1 2.8.9 4.1-.2.8-.7 1.5-1.4 2.1-2.1 2.3-2.6 4.7-5.2 6.7-8 2.1-3 4.7-3.3 8.4-2.2-1.9 2.3-3.5 4.4-5.2 6.4C53 51.4 48 56.5 43.8 62.3c-3.1 4.2-6.5 6.4-11.7 5.7-2.1-.3-4.3-.1-6.5 0-1 0-2 0-3 .1-2.5.3-4 1.5-4.3 3.5-.3 1.9.8 3.7 3 4.6 1.1.4 2.2.7 3.4.7 5.3.1 10.7.1 16 0 3.5-.1 6.3-1.4 8.6-4.3 2.2-2.8 4.8-5.3 7.6-8.3 3 2.9 5.5 5.8 8.4 8.3 2.1 1.8 2.4 3.7 1.8 6.2-1.2 4.9-2.2 9.7-3.3 14.6-.9 4.1.1 6.7 3 7.3 2.6.6 4.7-1.2 5.6-5 1.7-7.6 3.3-15.3 5.1-22.9.7-2.8-.1-4.9-1.9-6.8-2.1-2.1-4.3-4.2-6.3-6.4-.7-.8-1.3-1.8-1.9-2.8 3.4-4 6.7-7.7 10.3-11.8 1.8 1.8 3.3 3.3 4.9 4.8 4 3.8 5.3 3.9 9.2.2 2.6-2.5 5.2-5.2 7.7-7.8.5-.9 1.2-1.9 1.8-2.9z"/><path d="M74.5 26c0 4 3.3 7.2 7.4 7 3.9-.2 6.3-2.8 6.2-6.9-.1-4-3.1-7-6.9-6.9-3.5.1-6.7 3.3-6.7 6.8z"/></g></svg>