<?xml version="1.0" encoding="utf-8"?>
<!-- Generator: Adobe Illustrator 18.0.0, SVG Export Plug-In . SVG Version: 6.00 Build 0)  -->
<!DOCTYPE svg PUBLIC "-//W3C//DTD SVG 1.1//EN" "http://www.w3.org/Graphics/SVG/1.1/DTD/svg11.dtd">
<svg version="1.1" id="Layer_1" xmlns="http://www.w3.org/2000/svg" xmlns:xlink="http://www.w3.org/1999/xlink" x="0px" y="0px"
	 viewBox="0 0 120 120" enable-background="new 0 0 120 120" xml:space="preserve">
<g display="none">
	<path display="inline" d="M161.7,75.1c-1.7,0-2.6,1.2-2.6,2.6c0,1.5,1.1,2.6,2.6,2.6c1.6,0,2.6-1.2,2.6-2.6
		C164.4,76.3,163.4,75.1,161.7,75.1z"/>
	<path display="inline" d="M198.8,74.3c-2.2-5.6-5.3-10.3-8.6-15c-3-4.3-6-8.5-9.1-12.8c-0.6-0.8-0.8-1.3-0.8-2.4
		c0-5.5,0-12.2,0-16.2h2c0.2,0,0.4-0.1,0.5-0.1c1.4,0,2.6-1,2.6-2.4c0-1.4-1.2-2.4-2.6-2.4h-28.6c-1.4,0-2.6,1.1-2.6,2.5
		s1.2,2.5,2.6,2.5h0.6c0.2,0,0.4,0,0.6,0h1.5c0,4.3,0,8.6,0,12.8c0,4.8,0.4,4.8-2.2,8.4c-3.5,4.9-6.8,9.7-10.1,14.7
		c-2.5,3.7-4.6,7.6-6,12.1c-1.9,6.4,0,12.8,4.9,16c2.9,1.9,6,2.6,9.2,2.6c10.7,0.1,21.3,0.1,32,0c2,0,3.9-0.3,5.8-0.8
		c1.6-0.5,3.3-1.3,4.7-2.3C200.3,87.8,201.3,80.5,198.8,74.3z M162,82.6c-1,0-2-0.3-3-1.3V86h-2V73h1.7l0.2,1.3c0.7-1,2-1.5,3-1.5
		c2.9,0,4.8,2.1,4.8,4.9C166.7,80.5,165,82.6,162,82.6z M180,82h-2v-5h-7v5h-2V69h2v6h7v-6h2V82z M155.4,59c0,0,0.2-0.5,3.4-5.1
		c1.2-1.7,2.3-3.4,3.5-5.2c0.7-1.2,1-2.1,1-3.5c0-5.9,0-11.2,0-17.2h11.6c0,4,0.1,10.7,0,16.3c0,2.5,0.5,4.4,1.8,6.3
		c1.7,2.5,3.5,4.6,5.3,7.1c0.4,0.5,1.2,1.3,1.2,1.3H155.4z"/>
</g>
<g>
	<path fill="#FFFFFF" d="M52.7,76.1c-1.7,0-2.6,1.2-2.6,2.6c0,1.5,1.1,2.6,2.6,2.6c1.6,0,2.6-1.2,2.6-2.6
		C55.4,77.3,54.4,76.1,52.7,76.1z"/>
	<path fill="#FFFFFF" d="M89.8,75.3c-2.2-5.6-5.3-10.3-8.6-15c-3-4.3-6-8.5-9.1-12.8c-0.6-0.8-0.8-1.3-0.8-2.4c0-5.5,0-12.2,0-16.2
		h2c0.2,0,0.4-0.1,0.5-0.1c1.4,0,2.6-1,2.6-2.4c0-1.4-1.2-2.4-2.6-2.4H45.2c-1.4,0-2.6,1.1-2.6,2.5s1.2,2.5,2.6,2.5h0.6
		c0.2,0,0.4,0,0.6,0H48c0,4.3,0,8.6,0,12.8c0,4.8,0.4,4.8-2.2,8.4c-3.5,4.9-6.8,9.7-10.1,14.7c-2.5,3.7-4.6,7.6-6,12.1
		c-1.9,6.4,0,12.8,4.9,16c2.9,1.9,6,2.6,9.2,2.6c10.7,0.1,21.3,0.1,32,0c2,0,3.9-0.3,5.8-0.8c1.6-0.5,3.3-1.3,4.7-2.3
		C91.3,88.8,92.3,81.5,89.8,75.3z M53,83.6c-1,0-2-0.3-3-1.3V87h-2V74h1.7l0.2,1.3c0.7-1,2-1.5,3-1.5c2.9,0,4.8,2.1,4.8,4.9
		C57.7,81.5,56,83.6,53,83.6z M71,83h-2v-5h-7v5h-2V70h2v6h7v-6h2V83z M54.8,60c0-0.1,0-0.2,0-0.2c0-1.6-1.3-2.9-2.9-2.9
		S49,58.1,49,59.8c0,0.1,0,0.2,0,0.2h-2.6c0,0,0.2-0.5,3.4-5.1c1.2-1.7,2.3-3.4,3.5-5.2c0.7-1.2,1-2.1,1-3.5c0-5.9,0-11.2,0-17.2
		h11.6c0,4,0.1,10.7,0,16.3c0,2.5,0.5,4.4,1.8,6.3c1.7,2.5,3.5,4.6,5.3,7.1c0.4,0.5,1.2,1.3,1.2,1.3H54.8z"/>
	<circle fill="#FFFFFF" cx="61.9" cy="49.2" r="3.4"/>
	<circle fill="#FFFFFF" cx="57.8" cy="38.7" r="1.3"/>
</g>
</svg>
