<svg xmlns="http://www.w3.org/2000/svg" viewBox="0 0 120 120" enable-background="new 0 0 120 120"><g fill="#fff"><path d="M58.6 27.6h2c.2 0 .5.1.7.1 2.5.2 5 .8 7.3 1.8 5.2 2.3 9 6.1 11.3 11.2 2.4 5.2 2.7 10.7.9 16.1-2.2 6.8-6.8 11.4-13.4 14-.3.1-.4.3-.4.6v5.4c0 .1 0 .3.1.5h22.6c1 .2 1.7.7 2 1.6.3.9.2 1.7-.4 2.4-.6.7-1.4.9-2.3.9H30.5c-1.6 0-2.7-.5-3.2-2.2v-.8c.6-1.7 1.9-2 3.5-2h21.3v-6c0-.2-.2-.4-.4-.4-1.3-.7-2.6-1.2-3.9-1.9-7.9-4.8-12.1-14.4-10.2-23.5 1.9-9.1 9.1-16.1 18.2-17.6 1 .1 1.9 0 2.8-.2zm1 37.4c8.2 0 14.9-6.7 14.9-14.9s-6.7-15-14.9-15S44.7 41.8 44.7 50c0 8.3 6.7 15 14.9 15z"/><path d="M27.3 89.5c.1-.3.2-.6.4-.8.4-.7 1-1.1 1.8-1.2H89c.8 0 1.5.1 2.1.6.8.7 1.1 1.6.7 2.7-.4 1.1-1.3 1.5-2.3 1.6H30.6c-1.6 0-2.8-.5-3.3-2.1v-.8z"/></g><path fill="#fff" d="M54.7 50c0-3 2.6-5.2 5.6-4.9.3 0 .7-.1 1-.3 2.1-1.6 4.2-3.2 6.2-4.8.3-.2.5-.4.8-.5.6-.3 1.3-.1 1.7.3.4.4.5 1.1.1 1.7-.1.3-.3.5-.5.7-1.6 2-3.1 4-4.7 5.9-.4.5-.5.9-.5 1.5.2 2.4-1.2 4.4-3.5 5.1-3 1.1-6.3-1.4-6.2-4.7z"/></svg>