<?xml version="1.0" encoding="utf-8"?>
<!-- Generator: Adobe Illustrator 18.0.0, SVG Export Plug-In . SVG Version: 6.00 Build 0)  -->
<!DOCTYPE svg PUBLIC "-//W3C//DTD SVG 1.1//EN" "http://www.w3.org/Graphics/SVG/1.1/DTD/svg11.dtd">
<svg version="1.1" id="Layer_1" xmlns="http://www.w3.org/2000/svg" xmlns:xlink="http://www.w3.org/1999/xlink" x="0px" y="0px"
	 viewBox="0 0 120 120" enable-background="new 0 0 120 120" xml:space="preserve">
<circle display="none" fill="#CE202A" cx="60" cy="60" r="57.6"/>
<g>
	<g>
		<path fill="#FFFFFF" d="M102.4,62h-28c-0.6,0-1-0.4-1-1c0-0.6,0.4-1,1-1h28c0.6,0,1,0.4,1,1C103.4,61.6,102.9,62,102.4,62z"/>
	</g>
	<g>
		<path fill="#FFFFFF" d="M102.4,68h-28c-0.6,0-1-0.4-1-1s0.4-1,1-1h28c0.6,0,1,0.4,1,1S102.9,68,102.4,68z"/>
	</g>
	<g>
		<path fill="#FFFFFF" d="M104.4,56h-26c-0.6,0-1-0.4-1-1s0.4-1,1-1h26c0.6,0,1,0.4,1,1S104.9,56,104.4,56z"/>
	</g>
	<path fill="#FFFFFF" d="M71.9,55.1l-4.4-8.3c-0.2-0.4-0.6-0.6-1-0.7c0,0,0,0,0,0c-0.2-0.1-0.3-0.1-0.5-0.2L43.8,35.8
		c-0.3-0.2-0.7-0.2-1.1,0l-22,10.3c-0.3,0.2-0.6,0.5-0.7,0.8l-5.2,8c-0.2,0.3-0.3,0.7-0.1,1.1c0.1,0.4,0.4,0.7,0.7,0.8l4.7,2l0,11.7
		c0,0.5,0.3,0.9,0.7,1.1l21.8,11.6c0.2,0.1,0.6,0,0.7,0c0.2,0,0.9-0.4,1.1-0.5c5.4-2.7,21.5-10.9,21.5-10.9c0.4-0.2,0.7-0.7,0.7-1.2
		l0.2-11.5l4.5-2.4c0.3-0.2,0.5-0.4,0.6-0.7C72.1,55.7,72.1,55.3,71.9,55.1z M42.8,38.6l-0.6,18L29.3,50l-5.2-2.7L42.8,38.6z
		 M22.7,69.8l0-20.2c0,0,18.7,9.4,18.7,9.6l-0.1,20.4L22.7,69.8z M64,69.8l-19.3,9.7L44.9,66l1.4,2.6c0.2,0.3,0.4,0.5,0.7,0.6
		c0.1,0,0.2,0.1,0.4,0.1c0.2,0,0.4,0,0.6-0.1l16.3-8.6L64,69.8z M47.9,66.3l-3-5.7l0-0.5l21-11.1l3.2,6L47.9,66.3z"/>
</g>
</svg>
