<?xml version="1.0" encoding="utf-8"?>
<!-- Generator: Adobe Illustrator 18.0.0, SVG Export Plug-In . SVG Version: 6.00 Build 0)  -->
<!DOCTYPE svg PUBLIC "-//W3C//DTD SVG 1.1//EN" "http://www.w3.org/Graphics/SVG/1.1/DTD/svg11.dtd">
<svg version="1.1" id="Layer_1" xmlns="http://www.w3.org/2000/svg" xmlns:xlink="http://www.w3.org/1999/xlink" x="0px" y="0px"
	 viewBox="0 0 120 120" enable-background="new 0 0 120 120" xml:space="preserve">
<circle display="none" fill="#CE202A" cx="60" cy="60" r="57.6"/>
<g>
	<g>
		<circle fill="#FFFFFF" cx="31.2" cy="68.7" r="5.1"/>
		<path fill="#FFFFFF" d="M31.2,69.4L31.2,69.4c-0.8,0-1.5-0.7-1.5-1.5V52.7c0-0.8,0.7-1.5,1.5-1.5l0,0c0.8,0,1.5,0.7,1.5,1.5v15.2
			C32.7,68.7,32,69.4,31.2,69.4z"/>
		<path fill="#FFFFFF" d="M39.8,68.5c-0.1-3-1.5-5.4-4-7c0-1.6,0-3.2,0-4.7c0-4.4-0.2-8.8-0.2-13.2c0-0.5-0.2-1.1-0.5-1.6
			c-0.8-1.8-2.9-2.8-4.9-2.3c-2.1,0.5-3.2,2.4-3.2,4.1c0,3.3,0,6.6,0,9.8c0,2,0,4,0,5.9c0,0.7,0,1.4,0,2c-4.9,3.1-5.2,9.3-2,12.8
			c3.2,3.5,8.9,3.7,12.2,0.3C38.9,72.9,39.9,70.9,39.8,68.5z M38.1,70c-0.5,2.9-2.8,5.1-5.6,5.6c-4.4,0.7-8.4-2.9-8-7.3
			c0.2-2.3,1.3-4.1,3.2-5.3c0.2-0.1,0.5-0.3,0.7-0.4c0,0,0.1-0.1,0.2-0.2c0-1.8,0-18.6,0.1-18.7c0.2-1.6,0.9-2.4,2.3-2.6
			c1.7-0.2,3.2,1,3.2,2.7c0,2,0,3.9,0,5.9c0,3.6,0,7.1,0,10.7c0,0.7,0,1.4,0,2.1c0.3,0.2,0.6,0.4,0.9,0.5C37.2,64.3,38.6,67,38.1,70
			z"/>
		<path fill="#FFFFFF" d="M23.8,42.1h-2.5c-0.2,0-0.4-0.2-0.4-0.4v-0.1c0-0.2,0.2-0.4,0.4-0.4h2.5c0.2,0,0.4,0.2,0.4,0.4v0.1
			C24.2,41.9,24,42.1,23.8,42.1z"/>
		<path fill="#FFFFFF" d="M23.8,44.7h-2.5c-0.2,0-0.4-0.2-0.4-0.4v-0.1c0-0.2,0.2-0.4,0.4-0.4h2.5c0.2,0,0.4,0.2,0.4,0.4v0.1
			C24.2,44.5,24,44.7,23.8,44.7z"/>
		<path fill="#FFFFFF" d="M23.8,47.4h-2.5c-0.2,0-0.4-0.2-0.4-0.4v-0.1c0-0.2,0.2-0.4,0.4-0.4h2.5c0.2,0,0.4,0.2,0.4,0.4V47
			C24.2,47.2,24,47.4,23.8,47.4z"/>
		<path fill="#FFFFFF" d="M23.8,50.1h-2.5c-0.2,0-0.4-0.2-0.4-0.4v-0.1c0-0.2,0.2-0.4,0.4-0.4h2.5c0.2,0,0.4,0.2,0.4,0.4v0.1
			C24.2,50,24,50.1,23.8,50.1z"/>
		<path fill="#FFFFFF" d="M23.8,53h-2.5c-0.2,0-0.4-0.2-0.4-0.4v-0.1c0-0.2,0.2-0.4,0.4-0.4h2.5c0.2,0,0.4,0.2,0.4,0.4v0.1
			C24.2,52.8,24,53,23.8,53z"/>
	</g>
	<path fill="#FFFFFF" d="M99.1,56.1l-4.4-8.3c-0.2-0.4-0.6-0.6-1-0.7c0,0,0,0,0,0c-0.2-0.1-0.3-0.1-0.5-0.2L71,36.8
		c-0.3-0.2-0.7-0.2-1.1,0l-22,10.3c-0.3,0.2-0.6,0.5-0.7,0.8l-5.2,8c-0.2,0.3-0.3,0.7-0.1,1.1c0.1,0.4,0.4,0.7,0.7,0.8l4.7,2l0,11.7
		c0,0.5,0.3,0.9,0.7,1.1l21.8,11.6c0.2,0.1,0.6,0,0.7,0c0.2,0,0.9-0.4,1.1-0.5C77,81,93.1,72.8,93.1,72.8c0.4-0.2,0.7-0.7,0.7-1.2
		L94,60.2l4.5-2.4c0.3-0.2,0.5-0.4,0.6-0.7C99.3,56.7,99.3,56.3,99.1,56.1z M70,39.6l-0.6,18L56.5,51l-5.2-2.7L70,39.6z M49.9,70.8
		l0-20.2c0,0,18.7,9.4,18.7,9.6l-0.1,20.4L49.9,70.8z M91.2,70.8L72,80.5L72.1,67l1.4,2.6c0.2,0.3,0.4,0.5,0.7,0.6
		c0.1,0,0.2,0.1,0.4,0.1c0.2,0,0.4,0,0.6-0.1l16.3-8.6L91.2,70.8z M75.1,67.3l-3-5.7l0-0.5l21-11.1l3.2,6L75.1,67.3z"/>
</g>
</svg>
