<svg xmlns="http://www.w3.org/2000/svg" viewBox="0 0 2400 2400" enable-background="new 0 0 2400 2400"><circle fill="#fff" cx="1195.5" cy="1682.5" r="249.7"/><path fill="#fff" d="M1195 1716c-40.7 0-74-33.3-74-74V902c0-40.7 33.3-74 74-74s74 33.3 74 74v740c0 40.7-33.3 74-74 74z"/><path fill="#fff" d="M1614 1672c-6-148-74-262-194-342v-230c0-214-8-430-8-644 0-26-12-56-22-80-40-90-140-138-238-114-102 24-158 118-156 200 2 160 0 320 0 478 0 96-2 194-2 290v98c-240 152-254 454-96 626 156 172 432 180 594 14 80-80 126-180 122-296zm-84 70c-26 142-136 248-274 272-214 36-408-140-390-358 10-112 64-198 158-260 10-6 22-14 32-20 2-2 4-4 8-10 0-88.5 2-908 4-914 8-76 46-118 110-128 84-12 156 48 156 134 2 96 0 192 0 288v624c14 10 28 18 42 26 112 70 180 202 154 346z"/><path fill="#fff" d="M833.9 382H710.1c-11.1 0-20.1-9.1-20.1-20.1v-3.7c0-11.1 9.1-20.1 20.1-20.1h123.7c11.1 0 20.1 9.1 20.1 20.1v3.7c.1 11-9 20.1-20 20.1z"/><path fill="#fff" d="M833.9 512H710.1c-11.1 0-20.1-9.1-20.1-20.1v-3.7c0-11.1 9.1-20.1 20.1-20.1h123.7c11.1 0 20.1 9.1 20.1 20.1v3.7c.1 11-9 20.1-20 20.1z"/><path fill="#fff" d="M833.9 642H710.1c-11.1 0-20.1-9.1-20.1-20.1v-3.7c0-11.1 9.1-20.1 20.1-20.1h123.7c11.1 0 20.1 9.1 20.1 20.1v3.7c.1 11-9 20.1-20 20.1z"/><path fill="#fff" d="M833.9 776H710.1c-11.1 0-20.1-9.1-20.1-20.1v-3.7c0-11.1 9.1-20.1 20.1-20.1h123.7c11.1 0 20.1 9.1 20.1 20.1v3.7c.1 11-9 20.1-20 20.1z"/><path fill="#fff" d="M833.9 916H710.1c-11.1 0-20.1-9.1-20.1-20.1v-3.7c0-11.1 9.1-20.1 20.1-20.1h123.7c11.1 0 20.1 9.1 20.1 20.1v3.7c.1 11-9 20.1-20 20.1z"/></svg>