<?xml version="1.0" encoding="utf-8"?>
<!-- Generator: Adobe Illustrator 18.0.0, SVG Export Plug-In . SVG Version: 6.00 Build 0)  -->
<!DOCTYPE svg PUBLIC "-//W3C//DTD SVG 1.1//EN" "http://www.w3.org/Graphics/SVG/1.1/DTD/svg11.dtd">
<svg version="1.1" id="Layer_1" xmlns="http://www.w3.org/2000/svg" xmlns:xlink="http://www.w3.org/1999/xlink" x="0px" y="0px"
	 viewBox="0 0 120 120" enable-background="new 0 0 120 120" xml:space="preserve">
<circle display="none" fill="#CE202A" cx="60" cy="60" r="57.6"/>
<g>
	<path fill="#FFFFFF" d="M70.4,65.1c0-0.8-0.6-2.1-2.7-2.1H63v4h4.7C69.7,67,70.4,66.1,70.4,65.1z"/>
	<path fill="#FFFFFF" d="M67.7,70H63v4h4.7c1.3,0,3.2-0.2,3.2-1.9C70.9,70.6,69,70,67.7,70z"/>
	<path fill="#FFFFFF" d="M92.8,85.1c-1.3-4.8-2.6-9.6-3.8-14.4c-2-7.6-4.1-15.2-6.1-22.9c-0.4-1.3-0.8-2.5-2.4-2.8
		c-0.4-0.1-10.3,0-10.9,0c0.3-0.5,0.6-1.1,0.8-1.5c4.5-7.5-0.5-19.3-11.1-19.3c-7.5,0-11.5,5.2-12.4,10.7c-0.5,3,0.1,5.9,1.6,8.5
		c0.2,0.4,0.5,0.9,0.8,1.5C48.4,45,42.4,45,39.8,45c-2.5,0-3.1,0.5-3.7,2.8c-2.5,9.3-4.9,18.6-7.4,27.8c-0.8,3-1.6,6-2.4,9.1
		c-0.1,0.4-0.2,0.8-0.2,1.2c-0.2,1.7,0.4,2.4,1.9,3c11.9,4.6,51.6,3.9,62.8,0.1C92.8,88.2,93.4,87.3,92.8,85.1z M57,77H45V60h3v14h9
		V77z M54.1,37c0-2.9,2.4-5.4,5.3-5.5c2.9,0,5.5,2.5,5.5,5.5c0,3-2.4,5.3-5.4,5.3C56.5,42.3,54.1,40,54.1,37z M67.7,77
		c-2.7,0-5.7,0-8.7,0V60c3,0,5.9,0,8.7,0c3.4,0,5.9,1.6,5.9,5.1c0,1.3-0.6,2.6-2.2,3.4c2,0.6,2.8,2.6,2.8,3.7
		C74.1,75.9,71.2,77,67.7,77z"/>
</g>
</svg>
