<?xml version="1.0" encoding="utf-8"?>
<!-- Generator: Adobe Illustrator 18.0.0, SVG Export Plug-In . SVG Version: 6.00 Build 0)  -->
<!DOCTYPE svg PUBLIC "-//W3C//DTD SVG 1.1//EN" "http://www.w3.org/Graphics/SVG/1.1/DTD/svg11.dtd">
<svg version="1.1" id="Layer_1" xmlns="http://www.w3.org/2000/svg" xmlns:xlink="http://www.w3.org/1999/xlink" x="0px" y="0px"
	 viewBox="0 0 120 120" enable-background="new 0 0 120 120" xml:space="preserve">
<g display="none">
	<path display="inline" d="M152.4,71.2c-1.8-11.3,5.8-20.9,13.5-23.7c2.9-1.1,5.8-1.7,8.9-1.7c27.9,0,25.5-0.1,53.4-0.1
		c1,0,2,0,3,0.1c1.1,0.1,1.9,0.7,2.1,1.8c0.3,1.4-0.1,2.5-1.2,3c-0.9,0.4-1.9,0.5-2.9,0.5c-10.2,0-20.4,0-30.7,0
		c-17.9,0-5.5,0.2-23.4,0.1c-8.6,0-16.7,5.8-17.6,15.7c-0.6,7.3,4.5,13.1,11.2,14.2c5.4,0.8,10.9-2.8,11.6-8.9
		c0.3-2.7-0.8-5.1-3.1-6.7c-2.3-1.6-4.9-2.1-7.5-0.6c-0.7,0.4-1.3,1.1-1.9,1.7c-1.2,1.1-2.7,1.3-3.8,0.5c-1.1-0.9-1.3-2.4-0.5-3.8
		c1.8-2.9,4.6-4.2,7.8-4.6c6.4-0.8,12.9,3.7,14.1,10.6c1.4,8.7-5.5,17.2-15.6,17.2C160,86.3,153.6,79,152.4,71.2z"/>
	<path display="inline" d="M232.8,38c0.1,2.4-2.8,2.9-5.2,2.9c-26.7,0-14.1-0.1-40.8-0.1c-3.5,0-6.8-0.5-9.9-2.2
		c-7.1-3.8-10.9-11.2-9.4-19.4c1-5.6,6.2-10.5,12-11.4c5-0.8,9.2,0.6,12.5,4.6c1.7,2.1,2.4,4.5,2.5,7.1c0.1,1.7-0.8,2.9-2.2,3
		c-1.6,0.2-2.5-0.5-3-2.3c-0.1-0.5-0.2-0.9-0.3-1.4c-0.8-4.1-4.1-6.4-8.1-5.8c-6.1,0.9-9.6,6.6-7.8,12.7c1.7,5.9,6.5,9.4,13.2,9.4
		c10.8,0.1,21.7,0,32.5,0c8,0-23.3,0.1-15.3,0.1c6.9,0,13.9-0.1,20.8-0.2c1.6,0,3.3,0.1,4.9,0C231.1,35.2,232.8,36.3,232.8,38z"/>
	<path display="inline" d="M201,61.9c-8.6,0,4.7,0-3.9,0c-0.7,0-1.4,0-2.1,0.1c-1.4,0.3-2.3,1.4-2.4,2.8c-0.1,1.6,0.6,2.8,2,3.3
		c0.6,0.2,1.2,0.3,1.8,0.5c1.5,0.6,2.1,1.6,1.9,3.1c-0.2,1.3-1,1.9-2.7,2c-4.3,0.1-7.9-3.3-8.4-7.5c-0.5-4.9,2.4-8,5.4-9.1
		c0.8-0.3,1.7-0.5,2.5-0.5c3.8-0.1,7.6-0.1,11.5-0.1c14,0,6,0,20,0c0.9,0,1.9,0,2.8,0.1c1.2,0.1,2,1,2.2,2.1c0.2,1-0.4,2.3-1.5,2.7
		c-1,0.3-2.1,0.5-3.2,0.5C218.3,61.9,209.7,61.9,201,61.9C201,61.9,201,61.9,201,61.9z"/>
	<path display="inline" d="M154.2,42.2c-2.6,0-5.1,0-7.7,0c-8.4-0.2-14.6-8.1-12.7-16.2c1.6-7.1,9.9-10.8,15.7-7.4
		c3.1,1.8,4.9,4.5,4.7,8.3c-0.1,1.7-0.7,2.5-2.1,2.6c-1.6,0.2-2.6-0.5-3-2.2c0-0.1,0-0.3-0.1-0.5c-0.6-2.5-1.8-4-3.8-4.1
		c-2.3-0.1-4.3,0.8-5.5,2.9c-1.5,2.5-1,6.1,1.2,8.4c1.7,1.9,3.9,2.8,6.4,2.8c4.8,0,9.5,0,14.3,0c0.5,0,1.1,0,1.6,0
		c1.7,0.2,2.6,1.2,2.6,2.7c0,1.5-1,2.5-2.7,2.6c-2,0.1-4,0-6.1,0C156,42.3,155.1,42.3,154.2,42.2C154.2,42.3,154.2,42.3,154.2,42.2z
		"/>
</g>
<circle display="none" fill="#CE202A" cx="60" cy="60" r="57.6"/>
<g>
	<path fill="#FFFFFF" d="M114,61.7c-0.3-1.1-1-1.7-2.1-1.8c-1-0.1-2-0.1-3-0.1c-27.9,0-25.5,0.1-53.4,0.1c-3.1,0-6,0.6-8.9,1.7
		C38.8,64.5,31.3,74,33.1,85.3c1.2,7.8,7.6,15.2,17.4,15.2c10.2,0,17.1-8.5,15.6-17.2c-1.1-6.9-7.6-10.8-14.1-10.6
		c-5.6,0.2-8.5,4-8.6,7.8C43.4,83,45.5,85,48,85s4.5-2,4.5-4.5c0-0.8-0.2-1.5-0.6-2.2c2.1-0.6,4.1-0.1,6,1.2c2.3,1.6,3.4,4,3.1,6.7
		c-0.7,6.1-6.2,9.7-11.6,8.9c-6.7-1-11.8-6.8-11.2-14.2c0.9-9.8,9-15.7,17.6-15.7c17.9,0.1,5.5-0.1,23.4-0.1c10.2,0,20.4,0,30.7,0
		c1,0,2-0.2,2.9-0.5C113.9,64.2,114.3,63,114,61.7z"/>
	<path fill="#FFFFFF" d="M57.5,52.8c3.1,1.6,6.5,2.2,9.9,2.2c26.7,0,14.1,0.1,40.8,0.1c2.4,0,5.3-0.5,5.2-2.9
		c-0.1-1.7-1.8-2.8-3.7-2.7c-1.6,0.1-3.3,0-4.9,0c-2.8,0-5.5,0-8.3,0.1c-9.9,0-19.8,0-29.7,0c-6.7,0-11.6-3.6-13.2-9.4
		c-1.7-6.2,1.7-11.8,7.8-12.7c3.1-0.5,5.8,0.8,7.2,3.3c-1.3,0.8-2.2,2.2-2.2,3.9c0,2.5,2.1,4.6,4.6,4.5c5.2-0.2,4.5-6.2,4.2-6.8
		C75,30,74,28.3,72.6,26.6c-3.2-4-7.4-5.4-12.5-4.6c-5.7,0.9-11,5.7-12,11.4C46.7,41.6,50.4,49,57.5,52.8z M84.5,49.6
		c-0.1,0-0.3,0-0.4,0C82,49.6,82.6,49.6,84.5,49.6z"/>
	<path fill="#FFFFFF" d="M110.1,70.7c-0.9-0.1-1.9-0.1-2.8-0.1c-14,0-6,0-20,0c-3.8,0-7.6,0-11.5,0.1c-0.8,0-1.7,0.2-2.5,0.5
		c-3,1.1-5.6,4.2-5.4,9.1c0.3,8,6.6,7.8,8,7.7c2.5-0.1,4.5-2,4.5-4.5S78.5,79,76,79c-1,0-1.9,0.3-2.6,0.8c0-0.3-0.1-0.6,0-0.8
		c0.1-1.4,1-2.6,2.4-2.8C76.4,76,77.3,76,78,76c8.6,0-5,0,4,0c0,0,0,0,0-0.1c8,0,17.2,0,25.8,0c1.1,0,2.1-0.2,3.1-0.5
		c1-0.4,1.6-1.7,1.4-2.7C112.2,71.7,111.3,70.9,110.1,70.7z"/>
	<path fill="#FFFFFF" d="M35,56.4c1,0,1.8,0,2.7,0c2,0,4,0.1,6,0c1.7-0.1,2.7-1,2.7-2.6c0-1.5-0.9-2.5-2.6-2.7c-0.5-0.1-1.1,0-1.6,0
		c-4.8,0-9.5,0-14.3,0c-2.6,0-4.7-0.9-6.4-2.8c-2.2-2.4-2.7-5.9-1.2-8.4c1.2-2,3.1-3,5.5-2.9c0.7,0,1.4,0.3,1.9,0.7
		c-1.3,0.8-2.2,2.2-2.2,3.9c0,2.5,2,4.4,4.5,4.5c3.9,0.2,4.8-4,4.8-4.9c0.2-3.7-1.6-6.5-4.7-8.3C24.4,29.4,16,33,14.4,40.2
		c-1.9,8.1,4.4,16.1,12.8,16.2C29.8,56.5,32,56.4,35,56.4C35,56.4,35,56.4,35,56.4z"/>
</g>
</svg>
