<?xml version="1.0" encoding="utf-8"?>
<!-- Generator: Adobe Illustrator 17.1.0, SVG Export Plug-In . SVG Version: 6.00 Build 0)  -->
<!DOCTYPE svg PUBLIC "-//W3C//DTD SVG 1.1//EN" "http://www.w3.org/Graphics/SVG/1.1/DTD/svg11.dtd">
<svg version="1.1" xmlns="http://www.w3.org/2000/svg" xmlns:xlink="http://www.w3.org/1999/xlink" x="0px" y="0px"
	 viewBox="0 0 1320 783.5" enable-background="new 0 0 1320 783.5" xml:space="preserve">
<g id="floorplan">
	
		<rect x="28.6" y="143.2" transform="matrix(0.9797 0.2002 -0.2002 0.9797 74.3431 -126.2098)" fill="#E6EAEC" width="1265" height="322.3"/>
	<rect x="1061.9" y="61.6" fill="#E6EAEC" width="231.1" height="63"/>
	<line fill="none" stroke="#808285" stroke-width="2" stroke-miterlimit="10" x1="746.6" y1="389.3" x2="733" y2="457.9"/>
	
		<rect x="69.1" y="71.4" transform="matrix(0.9786 0.206 -0.206 0.9786 38.2097 -13.2235)" fill="none" stroke="#808285" stroke-width="2" stroke-miterlimit="10" width="26.9" height="211.1"/>
	
		<rect x="483.1" y="182" transform="matrix(0.206 -0.9786 0.9786 0.206 157.9772 677.5959)" fill="none" stroke="#808285" stroke-width="2" stroke-miterlimit="10" width="26.9" height="118.9"/>
	
		<rect x="471.2" y="237.5" transform="matrix(0.206 -0.9786 0.9786 0.206 94.274 710.0571)" fill="none" stroke="#808285" stroke-width="2" stroke-miterlimit="10" width="26.9" height="118.9"/>
	
		<rect x="602.3" y="193.5" transform="matrix(0.206 -0.9786 0.9786 0.206 241.4047 803.4207)" fill="none" stroke="#808285" stroke-width="2" stroke-miterlimit="10" width="26.9" height="118.9"/>
	
		<rect x="590.6" y="249" transform="matrix(0.206 -0.9786 0.9786 0.206 177.8215 836.03)" fill="none" stroke="#808285" stroke-width="2" stroke-miterlimit="10" width="26.9" height="118.9"/>
	
		<rect x="155.2" y="235" transform="matrix(0.9786 0.206 -0.206 0.9786 78.5681 -139.5891)" fill="none" stroke="#808285" stroke-width="2" stroke-miterlimit="10" width="1109" height="145"/>
	
		<rect x="146" y="283.9" transform="matrix(0.9786 0.206 -0.206 0.9786 66.4862 -30.3743)" fill="none" stroke="#808285" stroke-width="2" stroke-miterlimit="10" width="66.3" height="40.4"/>
	
		<rect x="372" y="146.9" transform="matrix(0.9786 0.206 -0.206 0.9786 40.8279 -78.1696)" fill="none" stroke="#808285" stroke-width="2" stroke-miterlimit="10" width="47.7" height="20.1"/>
	
		<rect x="655.9" y="422.3" transform="matrix(0.9786 0.206 -0.206 0.9786 113.5359 -175.7226)" fill="none" stroke="#808285" stroke-width="2" stroke-miterlimit="10" width="489.6" height="70.3"/>
	<line fill="none" stroke="#808285" stroke-width="2" stroke-miterlimit="10" x1="815" y1="403.8" x2="801.4" y2="472.4"/>
	<line fill="none" stroke="#808285" stroke-width="2" stroke-miterlimit="10" x1="866.9" y1="414.4" x2="852.9" y2="483.3"/>
	<line fill="none" stroke="#808285" stroke-width="2" stroke-miterlimit="10" x1="901.1" y1="421.9" x2="886.8" y2="490.4"/>
	<line fill="none" stroke="#808285" stroke-width="2" stroke-miterlimit="10" x1="960" y1="435.8" x2="946" y2="502.9"/>
	<line fill="none" stroke="#808285" stroke-width="2" stroke-miterlimit="10" x1="1080.2" y1="459.9" x2="1065.8" y2="529"/>
	
		<rect x="911.1" y="303.4" transform="matrix(0.2074 -0.9783 0.9783 0.2074 335.5196 1220.395)" fill="none" stroke="#808285" stroke-width="2" stroke-miterlimit="10" width="19.5" height="199.4"/>
	<g>
		
			<rect x="863.3" y="282.4" transform="matrix(-0.9783 -0.2074 0.2074 -0.9783 1659.6166 825.3701)" fill="none" stroke="#808285" stroke-width="2" stroke-miterlimit="10" width="19.5" height="86.7"/>
		
			<rect x="882.4" y="286.4" transform="matrix(-0.9783 -0.2074 0.2074 -0.9783 1696.5107 837.3247)" fill="none" stroke="#808285" stroke-width="2" stroke-miterlimit="10" width="19.5" height="86.7"/>
		
			<rect x="901.5" y="290.4" transform="matrix(-0.9783 -0.2074 0.2074 -0.9783 1733.4048 849.2792)" fill="none" stroke="#808285" stroke-width="2" stroke-miterlimit="10" width="19.5" height="86.7"/>
		
			<rect x="920.5" y="294.5" transform="matrix(-0.9783 -0.2074 0.2074 -0.9783 1770.2987 861.2339)" fill="none" stroke="#808285" stroke-width="2" stroke-miterlimit="10" width="19.5" height="86.7"/>
		
			<rect x="939.6" y="298.5" transform="matrix(-0.9783 -0.2074 0.2074 -0.9783 1807.1929 873.1885)" fill="none" stroke="#808285" stroke-width="2" stroke-miterlimit="10" width="19.5" height="86.7"/>
		
			<rect x="958.7" y="302.6" transform="matrix(-0.9783 -0.2074 0.2074 -0.9783 1844.0868 885.1431)" fill="none" stroke="#808285" stroke-width="2" stroke-miterlimit="10" width="19.5" height="86.7"/>
		
			<rect x="977.8" y="306.6" transform="matrix(-0.9783 -0.2074 0.2074 -0.9783 1880.9808 897.0977)" fill="none" stroke="#808285" stroke-width="2" stroke-miterlimit="10" width="19.5" height="86.7"/>
	</g>
	<polyline fill="none" stroke="#808285" stroke-width="2" stroke-miterlimit="10" points="379.5,311.9 373,342.5 483.4,365.7 
		489.8,335.2 	"/>
	<polyline fill="none" stroke="#808285" stroke-width="2" stroke-miterlimit="10" points="1117.5,319.3 1121.6,300.2 1271.1,332.4 
		1267,352 	"/>
	<line fill="none" stroke="#808285" stroke-miterlimit="10" x1="545.4" y1="214.1" x2="545.4" y2="87"/>
	<line fill="none" stroke="#808285" stroke-miterlimit="10" x1="215.7" y1="107" x2="215.7" y2="13.5"/>
	<line fill="none" stroke="#808285" stroke-miterlimit="10" x1="839.3" y1="385.2" x2="839.3" y2="130.6"/>
	<line fill="none" stroke="#808285" stroke-miterlimit="10" x1="268.5" y1="421.9" x2="268.5" y2="258.7"/>
	<line fill="none" stroke="#808285" stroke-miterlimit="10" x1="67.8" y1="394.7" x2="67.8" y2="243.1"/>
	<line fill="none" stroke="#808285" stroke-miterlimit="10" x1="1122.3" y1="649.7" x2="1122.3" y2="511.6"/>
	<line fill="none" stroke="#808285" stroke-miterlimit="10" x1="999" y1="588.9" x2="999" y2="472.4"/>
	<line fill="none" stroke="#808285" stroke-miterlimit="10" x1="926.4" y1="631.9" x2="926.4" y2="459.9"/>
	<line fill="none" stroke="#808285" stroke-miterlimit="10" x1="696" y1="544.6" x2="696" y2="416.8"/>
	<line fill="none" stroke="#D1D3D4" stroke-width="2" stroke-miterlimit="10" x1="994.8" y1="325.7" x2="994.8" y2="253"/>
</g>
<g id="text">
	<g>
		<path fill="#414042" d="M563.5,104.8H562V88.1h1.5V96l2.9-0.1l4.6-7.8h1.7l-5,8.4l5.4,8.3h-1.8l-4.8-7.5l-2.9,0V104.8z"/>
		<path fill="#414042" d="M582.8,103.6l0.7-0.1l0,1.2c-1.8,0.2-3.3,0.3-4.6,0.3c-1.7,0-2.9-0.5-3.6-1.5c-0.7-1-1-2.6-1-4.7
			c0-4.2,1.6-6.3,4.9-6.3c1.6,0,2.8,0.5,3.6,1.4c0.8,0.9,1.2,2.3,1.2,4.3l0,1.2h-8.2c0,1.5,0.3,2.6,0.8,3.3c0.5,0.7,1.4,1.1,2.6,1.1
			S581.6,103.7,582.8,103.6z M575.8,98.2h6.8c0-1.6-0.3-2.7-0.8-3.4c-0.5-0.7-1.4-1-2.5-1c-1.1,0-2,0.3-2.6,1
			C576.1,95.6,575.8,96.7,575.8,98.2z"/>
		<path fill="#414042" d="M593,94.1h-4v5.9c0,1.6,0.1,2.6,0.3,3c0.2,0.5,0.8,0.7,1.6,0.7l2.2-0.2l0.1,1.2c-1.1,0.2-1.9,0.2-2.4,0.2
			c-1.2,0-2.1-0.3-2.5-0.9c-0.5-0.6-0.7-1.7-0.7-3.4v-6.6h-1.8v-1.3h1.8V89h1.4v3.8h4V94.1z"/>
		<path fill="#414042" d="M601.3,94.1h-4v5.9c0,1.6,0.1,2.6,0.3,3c0.2,0.5,0.8,0.7,1.6,0.7l2.2-0.2l0.1,1.2
			c-1.1,0.2-1.9,0.2-2.4,0.2c-1.2,0-2.1-0.3-2.5-0.9c-0.5-0.6-0.7-1.7-0.7-3.4v-6.6h-1.8v-1.3h1.8V89h1.4v3.8h4V94.1z"/>
		<path fill="#414042" d="M603.7,104.8V87.5h1.4v17.3H603.7z"/>
		<path fill="#414042" d="M616.8,103.6l0.7-0.1l0,1.2c-1.8,0.2-3.3,0.3-4.6,0.3c-1.7,0-2.9-0.5-3.6-1.5c-0.7-1-1-2.6-1-4.7
			c0-4.2,1.6-6.3,4.9-6.3c1.6,0,2.8,0.5,3.6,1.4c0.8,0.9,1.2,2.3,1.2,4.3l0,1.2h-8.2c0,1.5,0.3,2.6,0.8,3.3c0.5,0.7,1.4,1.1,2.6,1.1
			S615.6,103.7,616.8,103.6z M609.8,98.2h6.8c0-1.6-0.3-2.7-0.8-3.4c-0.5-0.7-1.4-1-2.5-1c-1.1,0-2,0.3-2.6,1
			C610.1,95.6,609.8,96.7,609.8,98.2z"/>
	</g>
	<g>
		<path fill="#414042" d="M232.3,37.7V21h9.8v1.3h-8.4v6.9h7.1v1.3h-7.1v7.1H232.3z"/>
		<path fill="#414042" d="M244.7,22.7v-1.8h1.4v1.8H244.7z M244.7,37.7v-12h1.4v12H244.7z"/>
		<path fill="#414042" d="M249.7,37.7v-12h1.4v1.7c0.6-0.4,1.3-0.8,2.2-1.2c0.9-0.4,1.6-0.6,2.4-0.8v1.4c-0.7,0.1-1.4,0.4-2.2,0.7
			c-0.8,0.3-1.3,0.6-1.8,0.8l-0.6,0.4v9H249.7z"/>
		<path fill="#414042" d="M265.4,36.5l0.7-0.1l0,1.2c-1.8,0.2-3.3,0.3-4.6,0.3c-1.7,0-2.9-0.5-3.6-1.5c-0.7-1-1-2.6-1-4.7
			c0-4.2,1.6-6.3,4.9-6.3c1.6,0,2.8,0.5,3.6,1.4c0.8,0.9,1.2,2.3,1.2,4.3l0,1.2h-8.2c0,1.5,0.3,2.6,0.8,3.3c0.5,0.7,1.4,1.1,2.6,1.1
			S264.2,36.6,265.4,36.5z M258.4,31.1h6.8c0-1.6-0.3-2.7-0.8-3.4c-0.5-0.7-1.4-1-2.5-1c-1.1,0-2,0.3-2.6,1
			C258.7,28.4,258.4,29.6,258.4,31.1z"/>
		<path fill="#414042" d="M284.3,37.7h-9.1V21h1.5v15.3h7.6V37.7z"/>
		<path fill="#414042" d="M294.6,29.3v6.4c0.1,0.6,0.6,0.9,1.6,1.1l-0.1,1.2c-1.2,0-2.1-0.3-2.7-1c-1.5,0.7-3,1-4.5,1
			c-1.1,0-1.9-0.3-2.4-0.9c-0.6-0.6-0.8-1.5-0.8-2.6c0-1.1,0.3-2,0.9-2.5c0.6-0.6,1.5-0.9,2.7-1l4.1-0.4v-1.1c0-0.9-0.2-1.5-0.6-1.9
			s-0.9-0.6-1.6-0.6c-1,0-2.4,0.1-4,0.3l-0.7,0.1l-0.1-1.2c1.8-0.3,3.3-0.5,4.6-0.5c1.3,0,2.3,0.3,2.9,0.9
			C294.4,27,294.6,28,294.6,29.3z M287.1,34.3c0,1.6,0.7,2.4,2,2.4c0.6,0,1.2-0.1,1.9-0.2c0.7-0.1,1.2-0.3,1.6-0.4l0.6-0.2v-4.3
			l-3.9,0.4c-0.8,0.1-1.3,0.3-1.7,0.7C287.3,33,287.1,33.5,287.1,34.3z"/>
		<path fill="#414042" d="M299.8,37.7h-1.4v-12h1.4v0.9c1.3-0.8,2.6-1.1,3.9-1.1c1.6,0,2.7,0.4,3.2,1.3c0.5,0.8,0.8,2.4,0.8,4.7v6.3
			h-1.4v-6.2c0-1.8-0.2-3.1-0.5-3.7c-0.4-0.6-1.1-1-2.3-1c-0.6,0-1.1,0.1-1.8,0.3c-0.6,0.2-1.1,0.3-1.4,0.5l-0.5,0.2V37.7z"/>
		<path fill="#414042" d="M319.1,36.5l0.7-0.1l0,1.2c-1.8,0.2-3.3,0.3-4.6,0.3c-1.7,0-2.9-0.5-3.6-1.5c-0.7-1-1-2.6-1-4.7
			c0-4.2,1.6-6.3,4.9-6.3c1.6,0,2.8,0.5,3.6,1.4c0.8,0.9,1.2,2.3,1.2,4.3l0,1.2h-8.2c0,1.5,0.3,2.6,0.8,3.3c0.5,0.7,1.4,1.1,2.6,1.1
			S317.9,36.6,319.1,36.5z M312.1,31.1h6.8c0-1.6-0.3-2.7-0.8-3.4c-0.5-0.7-1.4-1-2.5-1c-1.1,0-2,0.3-2.6,1
			C312.4,28.4,312.1,29.6,312.1,31.1z"/>
	</g>
	<g>
		<path fill="#414042" d="M857.2,146.5c0,2.5,1.4,3.8,4.2,3.8c1.4,0,2.5-0.3,3.2-0.9c0.7-0.6,1.1-1.6,1.1-2.9v-11.8h1.5v11.8
			c0,1.8-0.5,3.1-1.5,3.9c-1,0.8-2.4,1.2-4.3,1.2s-3.3-0.4-4.2-1.2c-1-0.8-1.4-2.1-1.4-3.9v-11.8h1.5V146.5z"/>
		<path fill="#414042" d="M877.1,140.7h-4v5.9c0,1.6,0.1,2.6,0.3,3c0.2,0.5,0.8,0.7,1.6,0.7l2.2-0.2l0.1,1.2
			c-1.1,0.2-1.9,0.2-2.4,0.2c-1.2,0-2.1-0.3-2.5-0.9c-0.5-0.6-0.7-1.7-0.7-3.4v-6.6h-1.8v-1.3h1.8v-3.8h1.4v3.8h4V140.7z"/>
		<path fill="#414042" d="M879.3,136.4v-1.8h1.4v1.8H879.3z M879.3,151.4v-12h1.4v12H879.3z"/>
		<path fill="#414042" d="M884.5,151.4v-17.3h1.4v17.3H884.5z"/>
		<path fill="#414042" d="M889.6,136.4v-1.8h1.4v1.8H889.6z M889.6,151.4v-12h1.4v12H889.6z"/>
		<path fill="#414042" d="M900.7,140.7h-4v5.9c0,1.6,0.1,2.6,0.3,3c0.2,0.5,0.8,0.7,1.6,0.7l2.2-0.2l0.1,1.2
			c-1.1,0.2-1.9,0.2-2.4,0.2c-1.2,0-2.1-0.3-2.5-0.9c-0.5-0.6-0.7-1.7-0.7-3.4v-6.6h-1.8v-1.3h1.8v-3.8h1.4v3.8h4V140.7z"/>
		<path fill="#414042" d="M901.8,139.4h1.5l3.2,10.8h0.9l3.2-10.8h1.5l-5.2,17.4h-1.4l1.6-5.4h-1.7L901.8,139.4z"/>
		<path fill="#414042" d="M918.3,136.1v-1.3h12v1.3H925v15.3h-1.5v-15.3H918.3z"/>
		<path fill="#414042" d="M930.1,151.4v-12h1.4v1.7c0.6-0.4,1.3-0.8,2.2-1.2c0.9-0.4,1.6-0.6,2.4-0.8v1.4c-0.7,0.1-1.4,0.4-2.2,0.7
			c-0.8,0.3-1.3,0.6-1.8,0.8l-0.6,0.4v9H930.1z"/>
		<path fill="#414042" d="M945.9,150.2l0.7-0.1l0,1.2c-1.8,0.2-3.3,0.3-4.6,0.3c-1.7,0-2.9-0.5-3.6-1.5c-0.7-1-1-2.6-1-4.7
			c0-4.2,1.6-6.3,4.9-6.3c1.6,0,2.8,0.5,3.6,1.4s1.2,2.3,1.2,4.3l0,1.2h-8.2c0,1.5,0.3,2.6,0.8,3.3s1.4,1.1,2.6,1.1
			S944.7,150.3,945.9,150.2z M938.9,144.8h6.8c0-1.6-0.3-2.7-0.8-3.4c-0.5-0.7-1.4-1-2.5-1c-1.1,0-2,0.3-2.6,1
			C939.2,142.2,938.9,143.3,938.9,144.8z"/>
		<path fill="#414042" d="M951.4,151.4H950v-12h1.4v0.9c1.3-0.8,2.6-1.1,3.9-1.1c1.6,0,2.7,0.4,3.2,1.3s0.8,2.4,0.8,4.7v6.3h-1.4
			v-6.2c0-1.8-0.2-3.1-0.5-3.7c-0.4-0.6-1.1-1-2.3-1c-0.6,0-1.1,0.1-1.8,0.3c-0.6,0.2-1.1,0.3-1.4,0.5l-0.5,0.2V151.4z"/>
		<path fill="#414042" d="M967.3,139.2c0.7,0,1.6,0.1,2.6,0.2l0.6,0.1l-0.1,1.2c-1.3-0.2-2.2-0.2-2.8-0.2c-1.4,0-2.4,0.3-2.9,1
			c-0.5,0.7-0.8,2-0.8,3.8c0,1.9,0.2,3.2,0.7,3.9c0.5,0.7,1.5,1.1,3,1.1l2.9-0.2l0,1.2c-1.4,0.2-2.5,0.3-3.2,0.3
			c-1.9,0-3.2-0.5-3.9-1.4c-0.7-0.9-1-2.6-1-4.9c0-2.3,0.4-3.9,1.1-4.8S965.5,139.2,967.3,139.2z"/>
		<path fill="#414042" d="M974.6,151.4h-1.4v-17.3h1.4v6c1.3-0.6,2.6-0.9,3.9-0.9c1.6,0,2.7,0.4,3.2,1.3s0.8,2.4,0.8,4.7v6.3h-1.4
			v-6.2c0-1.8-0.2-3.1-0.5-3.7c-0.3-0.6-1.1-1-2.2-1c-0.6,0-1.1,0.1-1.8,0.2c-0.6,0.1-1.1,0.3-1.4,0.4l-0.5,0.2V151.4z"/>
	</g>
	<g>
		<path fill="#414042" d="M291.5,414.4h-4.6v5.8h-1.5v-16.7h6.1c1.8,0,3.1,0.4,3.9,1.3c0.8,0.9,1.3,2.2,1.3,4
			C296.7,412.6,294.9,414.4,291.5,414.4z M286.9,413.1h4.6c2.4,0,3.6-1.4,3.6-4.3c0-1.4-0.3-2.4-0.9-3c-0.6-0.6-1.5-1-2.8-1h-4.6
			V413.1z"/>
		<path fill="#414042" d="M299.3,420.2v-12h1.4v1.7c0.6-0.4,1.3-0.8,2.2-1.2c0.9-0.4,1.6-0.6,2.4-0.8v1.4c-0.7,0.1-1.4,0.4-2.2,0.7
			s-1.3,0.6-1.8,0.8l-0.6,0.4v9H299.3z"/>
		<path fill="#414042" d="M306.7,414.2c0-2.3,0.4-3.9,1.1-4.8c0.8-0.9,2.1-1.4,3.9-1.4c1.8,0,3.1,0.5,3.9,1.4
			c0.8,0.9,1.1,2.5,1.1,4.8c0,2.3-0.3,3.9-1,4.8c-0.7,1-2,1.4-4,1.4s-3.3-0.5-4-1.4C307,418.1,306.7,416.5,306.7,414.2z
			 M308.1,414.2c0,1.9,0.2,3.2,0.7,3.9c0.4,0.7,1.4,1.1,2.9,1.1c1.5,0,2.4-0.4,2.9-1.1s0.7-2,0.7-3.9s-0.3-3.2-0.8-3.9
			c-0.5-0.7-1.4-1-2.8-1s-2.3,0.3-2.8,1C308.4,411,308.1,412.3,308.1,414.2z"/>
		<path fill="#414042" d="M328.8,402.9v17.3h-1.4v-0.9c-1.3,0.8-2.5,1.1-3.8,1.1c-0.6,0-1.1-0.1-1.5-0.2s-0.9-0.4-1.3-0.8
			c-0.9-0.8-1.4-2.4-1.4-4.8s0.4-4.1,1.2-5.1s2.1-1.6,3.9-1.6c0.7,0,1.7,0.1,3,0.3v-5.4H328.8z M322.6,419c0.3,0.1,0.7,0.2,1.2,0.2
			c0.5,0,1-0.1,1.6-0.3c0.6-0.2,1.1-0.3,1.5-0.5l0.5-0.3v-8.6c-1.3-0.2-2.3-0.3-3-0.3c-1.4,0-2.3,0.4-2.8,1.2
			c-0.5,0.8-0.8,2.1-0.8,3.9c0,2,0.3,3.4,0.9,4C322,418.7,322.3,418.9,322.6,419z"/>
		<path fill="#414042" d="M339.9,408.2h1.4v12h-1.4v-0.9c-1.2,0.8-2.5,1.1-3.7,1.1c-1.6,0-2.7-0.4-3.2-1.2s-0.8-2.4-0.8-4.7v-6.3
			h1.4v6.2c0,1.9,0.2,3.1,0.5,3.7s1.1,1,2.2,1c0.6,0,1.1-0.1,1.7-0.3c0.6-0.2,1-0.3,1.3-0.5l0.5-0.2V408.2z"/>
		<path fill="#414042" d="M349.4,408c0.7,0,1.6,0.1,2.6,0.2l0.6,0.1l-0.1,1.2c-1.3-0.2-2.2-0.2-2.8-0.2c-1.4,0-2.4,0.3-2.9,1
			c-0.5,0.7-0.8,2-0.8,3.8c0,1.9,0.2,3.2,0.7,3.9c0.5,0.7,1.5,1.1,3,1.1l2.9-0.2l0,1.2c-1.4,0.2-2.5,0.3-3.2,0.3
			c-1.9,0-3.2-0.5-3.9-1.4c-0.7-0.9-1-2.6-1-4.9s0.4-3.9,1.1-4.8C346.4,408.5,347.6,408,349.4,408z"/>
		<path fill="#414042" d="M361.4,409.5h-4v5.9c0,1.6,0.1,2.6,0.3,3c0.2,0.5,0.8,0.7,1.6,0.7l2.2-0.2l0.1,1.2
			c-1.1,0.2-1.9,0.2-2.4,0.2c-1.2,0-2.1-0.3-2.5-0.9c-0.5-0.6-0.7-1.7-0.7-3.4v-6.6h-1.8v-1.3h1.8v-3.8h1.4v3.8h4V409.5z"/>
		<path fill="#414042" d="M363.7,405.2v-1.8h1.4v1.8H363.7z M363.7,420.2v-12h1.4v12H363.7z"/>
		<path fill="#414042" d="M368.2,414.2c0-2.3,0.4-3.9,1.1-4.8c0.8-0.9,2.1-1.4,3.9-1.4c1.8,0,3.1,0.5,3.9,1.4
			c0.8,0.9,1.1,2.5,1.1,4.8c0,2.3-0.3,3.9-1,4.8c-0.7,1-2,1.4-4,1.4s-3.3-0.5-4-1.4C368.5,418.1,368.2,416.5,368.2,414.2z
			 M369.7,414.2c0,1.9,0.2,3.2,0.7,3.9c0.4,0.7,1.4,1.1,2.9,1.1c1.5,0,2.4-0.4,2.9-1.1s0.7-2,0.7-3.9s-0.3-3.2-0.8-3.9
			c-0.5-0.7-1.4-1-2.8-1s-2.3,0.3-2.8,1C369.9,411,369.7,412.3,369.7,414.2z"/>
		<path fill="#414042" d="M382.8,420.2h-1.4v-12h1.4v0.9c1.3-0.8,2.6-1.1,3.9-1.1c1.6,0,2.7,0.4,3.2,1.3c0.5,0.8,0.8,2.4,0.8,4.7
			v6.3h-1.4V414c0-1.8-0.2-3.1-0.5-3.7c-0.4-0.6-1.1-1-2.3-1c-0.6,0-1.1,0.1-1.8,0.3c-0.6,0.2-1.1,0.3-1.4,0.5l-0.5,0.2V420.2z"/>
		<path fill="#414042" d="M398.2,420.2l4.8-16.7h3.5l4.8,16.7h-1.5l-1.3-4.6H401l-1.3,4.6H398.2z M404.1,404.9l-2.7,9.5h6.7
			l-2.7-9.5H404.1z"/>
		<path fill="#414042" d="M413.7,420.2v-12h1.4v1.7c0.6-0.4,1.3-0.8,2.2-1.2c0.9-0.4,1.6-0.6,2.4-0.8v1.4c-0.7,0.1-1.4,0.4-2.2,0.7
			s-1.3,0.6-1.8,0.8l-0.6,0.4v9H413.7z"/>
		<path fill="#414042" d="M429.4,419l0.7-0.1l0,1.2c-1.8,0.2-3.3,0.3-4.6,0.3c-1.7,0-2.9-0.5-3.6-1.5c-0.7-1-1-2.6-1-4.7
			c0-4.2,1.6-6.3,4.9-6.3c1.6,0,2.8,0.5,3.6,1.4c0.8,0.9,1.2,2.3,1.2,4.3l0,1.2h-8.2c0,1.5,0.3,2.6,0.8,3.3c0.5,0.7,1.4,1.1,2.6,1.1
			S428.2,419.1,429.4,419z M422.4,413.6h6.8c0-1.6-0.3-2.7-0.8-3.4c-0.5-0.7-1.4-1-2.5-1c-1.1,0-2,0.3-2.6,1
			C422.7,411,422.4,412.1,422.4,413.6z"/>
		<path fill="#414042" d="M441.9,411.8v6.4c0.1,0.6,0.6,0.9,1.6,1.1l-0.1,1.2c-1.2,0-2.1-0.3-2.7-1c-1.5,0.7-3,1-4.5,1
			c-1.1,0-1.9-0.3-2.4-0.9c-0.6-0.6-0.8-1.5-0.8-2.6c0-1.1,0.3-2,0.9-2.5s1.5-0.9,2.7-1l4.1-0.4v-1.1c0-0.9-0.2-1.5-0.6-1.9
			c-0.4-0.4-0.9-0.6-1.6-0.6c-1,0-2.4,0.1-4,0.3l-0.7,0.1l-0.1-1.2c1.8-0.3,3.3-0.5,4.6-0.5c1.3,0,2.3,0.3,2.9,0.9
			C441.6,409.6,441.9,410.5,441.9,411.8z M434.3,416.8c0,1.6,0.7,2.4,2,2.4c0.6,0,1.2-0.1,1.9-0.2c0.7-0.1,1.2-0.3,1.6-0.4l0.6-0.2
			v-4.3l-3.9,0.4c-0.8,0.1-1.3,0.3-1.7,0.7C434.5,415.5,434.3,416.1,434.3,416.8z"/>
	</g>
	<g>
		<path fill="#414042" d="M89.2,379.1c-2.6,0-3.9,1-3.9,3c0,1.2,0.3,1.9,0.9,2.3c0.6,0.4,1.7,0.8,3.4,1.1s2.9,0.8,3.6,1.4
			s1.1,1.6,1.1,3c0,1.8-0.4,3.1-1.3,3.9c-0.9,0.8-2.2,1.2-3.9,1.2c-1.2,0-2.7-0.1-4.3-0.3l-0.9-0.1l0.2-1.3c2.2,0.3,3.9,0.4,5.1,0.4
			c1.2,0,2.1-0.3,2.7-0.9s0.9-1.4,0.9-2.6s-0.3-1.9-0.8-2.3c-0.6-0.4-1.4-0.7-2.6-0.9c-1.2-0.2-2.1-0.4-2.7-0.6
			c-0.6-0.2-1.1-0.4-1.6-0.8c-0.5-0.3-0.8-0.8-1-1.3c-0.2-0.5-0.3-1.2-0.3-2c0-2.9,1.8-4.4,5.3-4.4c1.1,0,2.4,0.1,4.1,0.3l0.8,0.1
			l-0.1,1.3C91.7,379.2,90.1,379.1,89.2,379.1z"/>
		<path fill="#414042" d="M101.9,382.5c0.7,0,1.6,0.1,2.6,0.2l0.6,0.1l-0.1,1.2c-1.3-0.2-2.2-0.2-2.8-0.2c-1.4,0-2.4,0.3-2.9,1
			c-0.5,0.7-0.8,2-0.8,3.8c0,1.9,0.2,3.2,0.7,3.9c0.5,0.7,1.5,1.1,3,1.1l2.9-0.2l0,1.2c-1.4,0.2-2.5,0.3-3.2,0.3
			c-1.9,0-3.2-0.5-3.9-1.4c-0.7-0.9-1-2.6-1-4.9s0.4-3.9,1.1-4.8C98.8,382.9,100.1,382.5,101.9,382.5z"/>
		<path fill="#414042" d="M116,386.3v6.4c0.1,0.6,0.6,0.9,1.6,1.1l-0.1,1.2c-1.2,0-2.1-0.3-2.7-1c-1.5,0.7-3,1-4.5,1
			c-1.1,0-1.9-0.3-2.4-0.9c-0.6-0.6-0.8-1.5-0.8-2.6c0-1.1,0.3-2,0.9-2.5s1.5-0.9,2.7-1l4.1-0.4v-1.1c0-0.9-0.2-1.5-0.6-1.9
			c-0.4-0.4-0.9-0.6-1.6-0.6c-1,0-2.4,0.1-4,0.3l-0.7,0.1l-0.1-1.2c1.8-0.3,3.3-0.5,4.6-0.5c1.3,0,2.3,0.3,2.9,0.9
			C115.7,384,116,385,116,386.3z M108.5,391.3c0,1.6,0.7,2.4,2,2.4c0.6,0,1.2-0.1,1.9-0.2c0.7-0.1,1.2-0.3,1.6-0.4l0.6-0.2v-4.3
			l-3.9,0.4c-0.8,0.1-1.3,0.3-1.7,0.7C108.7,390,108.5,390.5,108.5,391.3z"/>
		<path fill="#414042" d="M119.9,394.7v-17.3h1.4v17.3H119.9z"/>
		<path fill="#414042" d="M133,393.5l0.7-0.1l0,1.2c-1.8,0.2-3.3,0.3-4.6,0.3c-1.7,0-2.9-0.5-3.6-1.5c-0.7-1-1-2.6-1-4.7
			c0-4.2,1.6-6.3,4.9-6.3c1.6,0,2.8,0.5,3.6,1.4c0.8,0.9,1.2,2.3,1.2,4.3l0,1.2H126c0,1.5,0.3,2.6,0.8,3.3c0.5,0.7,1.4,1.1,2.6,1.1
			S131.8,393.6,133,393.5z M126,388.1h6.8c0-1.6-0.3-2.7-0.8-3.4c-0.5-0.7-1.4-1-2.5-1c-1.1,0-2,0.3-2.6,1
			C126.3,385.4,126,386.6,126,388.1z"/>
	</g>
	<g>
		<path fill="#414042" d="M1137.5,633.4V632h12v1.3h-5.2v15.3h-1.5v-15.3H1137.5z"/>
		<path fill="#414042" d="M1157.6,640.3v6.4c0.1,0.6,0.6,0.9,1.6,1.1l-0.1,1.2c-1.2,0-2.1-0.3-2.7-1c-1.5,0.7-3,1-4.5,1
			c-1.1,0-1.9-0.3-2.4-0.9c-0.6-0.6-0.8-1.5-0.8-2.6c0-1.1,0.3-2,0.9-2.5s1.5-0.9,2.7-1l4.1-0.4v-1.1c0-0.9-0.2-1.5-0.6-1.9
			c-0.4-0.4-0.9-0.6-1.6-0.6c-1,0-2.4,0.1-4,0.3l-0.7,0.1l-0.1-1.2c1.8-0.3,3.3-0.5,4.6-0.5c1.3,0,2.3,0.3,2.9,0.9
			S1157.6,639,1157.6,640.3z M1150.1,645.3c0,1.6,0.7,2.4,2,2.4c0.6,0,1.2-0.1,1.9-0.2c0.7-0.1,1.2-0.3,1.6-0.4l0.6-0.2v-4.3
			l-3.9,0.4c-0.8,0.1-1.3,0.3-1.7,0.7C1150.3,644,1150.1,644.6,1150.1,645.3z"/>
		<path fill="#414042" d="M1162.8,648.7h-1.4v-12h1.4v0.9c1.3-0.8,2.6-1.1,3.9-1.1c1.6,0,2.7,0.4,3.2,1.3s0.8,2.4,0.8,4.7v6.3h-1.4
			v-6.2c0-1.8-0.2-3.1-0.5-3.7c-0.4-0.6-1.1-1-2.3-1c-0.6,0-1.1,0.1-1.8,0.3c-0.6,0.2-1.1,0.3-1.4,0.5l-0.5,0.2V648.7z"/>
		<path fill="#414042" d="M1175.5,648.7h-1.4v-17.3h1.4v10.3l2,0l3.7-4.9h1.7l-4.1,5.5l4.3,6.5h-1.7l-3.8-5.8l-2.1,0V648.7z"/>
		<path fill="#414042" d="M1189,637.8c-1.9,0-2.8,0.7-2.8,2c0,0.6,0.2,1.1,0.6,1.3s1.4,0.5,2.8,0.8s2.5,0.6,3.1,1
			c0.6,0.4,0.9,1.3,0.9,2.5c0,1.2-0.4,2.1-1.2,2.7c-0.8,0.6-1.9,0.9-3.5,0.9c-0.9,0-2-0.1-3.4-0.3l-0.7-0.1l0.1-1.3
			c1.8,0.3,3.2,0.4,4.1,0.4c1,0,1.7-0.2,2.2-0.5c0.5-0.3,0.8-0.9,0.8-1.7s-0.2-1.3-0.7-1.6c-0.4-0.3-1.4-0.5-2.8-0.7
			c-1.4-0.2-2.5-0.5-3.1-1s-0.9-1.2-0.9-2.4c0-1.2,0.4-2,1.2-2.5c0.8-0.5,1.8-0.8,3-0.8c1,0,2.2,0.1,3.6,0.3l0.6,0.1l0,1.3
			C1191.5,637.9,1190.1,637.8,1189,637.8z"/>
	</g>
	<g>
		<path fill="#414042" d="M1015.9,565.6h5.9c3.3,0,4.9,1.4,4.9,4.2c0,2-0.7,3.3-2.2,3.9c1.8,0.6,2.8,1.9,2.8,4
			c0,1.7-0.4,2.9-1.3,3.6s-2.1,1.1-3.8,1.1h-6.3V565.6z M1021.8,567h-4.4v6.2h4.6c1.1,0,1.9-0.3,2.5-0.8c0.5-0.5,0.8-1.3,0.8-2.4
			s-0.3-1.8-0.9-2.3C1023.8,567.2,1023,567,1021.8,567z M1022,574.5h-4.6v6.5h4.8c1.2,0,2.1-0.2,2.7-0.7c0.6-0.5,0.9-1.4,0.9-2.6
			C1025.8,575.5,1024.5,574.5,1022,574.5z"/>
		<path fill="#414042" d="M1038.4,581.1l0.7-0.1l0,1.2c-1.8,0.2-3.3,0.3-4.6,0.3c-1.7,0-2.9-0.5-3.6-1.5c-0.7-1-1-2.6-1-4.7
			c0-4.2,1.6-6.3,4.9-6.3c1.6,0,2.8,0.5,3.6,1.4s1.2,2.3,1.2,4.3l0,1.2h-8.2c0,1.5,0.3,2.6,0.8,3.3s1.4,1.1,2.6,1.1
			S1037.2,581.2,1038.4,581.1z M1031.4,575.7h6.8c0-1.6-0.3-2.7-0.8-3.4c-0.5-0.7-1.4-1-2.5-1c-1.1,0-2,0.3-2.6,1
			C1031.7,573.1,1031.4,574.2,1031.4,575.7z"/>
		<path fill="#414042" d="M1048.5,571.6h-4v5.9c0,1.6,0.1,2.6,0.3,3c0.2,0.5,0.8,0.7,1.6,0.7l2.2-0.2l0.1,1.2
			c-1.1,0.2-1.9,0.2-2.4,0.2c-1.2,0-2.1-0.3-2.5-0.9c-0.5-0.6-0.7-1.7-0.7-3.4v-6.6h-1.8v-1.3h1.8v-3.8h1.4v3.8h4V571.6z"/>
		<path fill="#414042" d="M1059,573.9v6.4c0.1,0.6,0.6,0.9,1.6,1.1l-0.1,1.2c-1.2,0-2.1-0.3-2.7-1c-1.5,0.7-3,1-4.5,1
			c-1.1,0-1.9-0.3-2.4-0.9c-0.6-0.6-0.8-1.5-0.8-2.6c0-1.1,0.3-2,0.9-2.5s1.5-0.9,2.7-1l4.1-0.4v-1.1c0-0.9-0.2-1.5-0.6-1.9
			c-0.4-0.4-0.9-0.6-1.6-0.6c-1,0-2.4,0.1-4,0.3l-0.7,0.1l-0.1-1.2c1.8-0.3,3.3-0.5,4.6-0.5c1.3,0,2.3,0.3,2.9,0.9
			S1059,572.6,1059,573.9z M1051.5,578.9c0,1.6,0.7,2.4,2,2.4c0.6,0,1.2-0.1,1.9-0.2c0.7-0.1,1.2-0.3,1.6-0.4l0.6-0.2v-4.3l-3.9,0.4
			c-0.8,0.1-1.3,0.3-1.7,0.7C1051.6,577.6,1051.5,578.2,1051.5,578.9z"/>
	</g>
	<g>
		<path fill="#414042" d="M943.3,612.2h5.9c3.3,0,4.9,1.4,4.9,4.2c0,2-0.7,3.3-2.2,3.9c1.8,0.6,2.8,1.9,2.8,4c0,1.7-0.4,2.9-1.3,3.6
			s-2.1,1.1-3.8,1.1h-6.3V612.2z M949.2,613.5h-4.4v6.2h4.6c1.1,0,1.9-0.3,2.5-0.8c0.5-0.5,0.8-1.3,0.8-2.4s-0.3-1.8-0.9-2.3
			C951.2,613.8,950.3,613.5,949.2,613.5z M949.4,621.1h-4.6v6.5h4.8c1.2,0,2.1-0.2,2.7-0.7c0.6-0.5,0.9-1.4,0.9-2.6
			C953.2,622.1,951.9,621.1,949.4,621.1z"/>
		<path fill="#414042" d="M957.3,622.9c0-2.3,0.4-3.9,1.1-4.8c0.8-0.9,2.1-1.4,3.9-1.4s3.1,0.5,3.9,1.4c0.8,0.9,1.1,2.5,1.1,4.8
			c0,2.3-0.3,3.9-1,4.8c-0.7,1-2,1.4-4,1.4s-3.3-0.5-4-1.4S957.3,625.1,957.3,622.9z M958.8,622.8c0,1.9,0.2,3.2,0.7,3.9
			c0.4,0.7,1.4,1.1,2.9,1.1c1.5,0,2.4-0.4,2.9-1.1s0.7-2,0.7-3.9s-0.3-3.2-0.8-3.9s-1.4-1-2.8-1c-1.4,0-2.3,0.3-2.8,1
			C959.1,619.7,958.8,621,958.8,622.8z"/>
		<path fill="#414042" d="M970.5,613.9v-1.8h1.4v1.8H970.5z M970.5,628.9v-12h1.4v12H970.5z"/>
		<path fill="#414042" d="M975.6,628.9v-17.3h1.4v17.3H975.6z"/>
		<path fill="#414042" d="M988.7,627.7l0.7-0.1l0,1.2c-1.8,0.2-3.3,0.3-4.6,0.3c-1.7,0-2.9-0.5-3.6-1.5c-0.7-1-1-2.6-1-4.7
			c0-4.2,1.6-6.3,4.9-6.3c1.6,0,2.8,0.5,3.6,1.4s1.2,2.3,1.2,4.3l0,1.2h-8.2c0,1.5,0.3,2.6,0.8,3.3s1.4,1.1,2.6,1.1
			S987.5,627.8,988.7,627.7z M981.7,622.3h6.8c0-1.6-0.3-2.7-0.8-3.4c-0.5-0.7-1.4-1-2.5-1c-1.1,0-2,0.3-2.6,1
			C982,619.7,981.7,620.8,981.7,622.3z"/>
		<path fill="#414042" d="M992.9,628.9v-12h1.4v1.7c0.6-0.4,1.3-0.8,2.2-1.2c0.9-0.4,1.6-0.6,2.4-0.8v1.4c-0.7,0.1-1.4,0.4-2.2,0.7
			s-1.3,0.6-1.8,0.8l-0.6,0.4v9H992.9z"/>
	</g>
	<g>
		<path fill="#414042" d="M712.9,544.6v-16.7h2.8l5.2,14.6l5.1-14.6h2.8v16.7h-1.5v-15.1h-0.3l-5.2,14.6h-1.8l-5.2-14.6h-0.3v15.1
			H712.9z"/>
		<path fill="#414042" d="M740.9,536.1v6.4c0.1,0.6,0.6,0.9,1.6,1.1l-0.1,1.2c-1.2,0-2.1-0.3-2.7-1c-1.5,0.7-3,1-4.5,1
			c-1.1,0-1.9-0.3-2.4-0.9c-0.6-0.6-0.8-1.5-0.8-2.6c0-1.1,0.3-2,0.9-2.5s1.5-0.9,2.7-1l4.1-0.4v-1.1c0-0.9-0.2-1.5-0.6-1.9
			c-0.4-0.4-0.9-0.6-1.6-0.6c-1,0-2.4,0.1-4,0.3l-0.7,0.1l-0.1-1.2c1.8-0.3,3.3-0.5,4.6-0.5c1.3,0,2.3,0.3,2.9,0.9
			S740.9,534.8,740.9,536.1z M733.4,541.1c0,1.6,0.7,2.4,2,2.4c0.6,0,1.2-0.1,1.9-0.2c0.7-0.1,1.2-0.3,1.6-0.4l0.6-0.2v-4.3
			l-3.9,0.4c-0.8,0.1-1.3,0.3-1.7,0.7C733.5,539.9,733.4,540.4,733.4,541.1z"/>
		<path fill="#414042" d="M744.6,529.6v-1.8h1.4v1.8H744.6z M744.6,544.6v-12h1.4v12H744.6z"/>
		<path fill="#414042" d="M751,544.6h-1.4v-12h1.4v0.9c1.3-0.8,2.6-1.1,3.9-1.1c1.6,0,2.7,0.4,3.2,1.3s0.8,2.4,0.8,4.7v6.3h-1.4
			v-6.2c0-1.8-0.2-3.1-0.5-3.7c-0.4-0.6-1.1-1-2.3-1c-0.6,0-1.1,0.1-1.8,0.3c-0.6,0.2-1.1,0.3-1.4,0.5l-0.5,0.2V544.6z"/>
		<path fill="#414042" d="M768.4,533.8h-4v5.9c0,1.6,0.1,2.6,0.3,3c0.2,0.5,0.8,0.7,1.6,0.7l2.2-0.2l0.1,1.2
			c-1.1,0.2-1.9,0.2-2.4,0.2c-1.2,0-2.1-0.3-2.5-0.9c-0.5-0.6-0.7-1.7-0.7-3.4v-6.6h-1.8v-1.3h1.8v-3.8h1.4v3.8h4V533.8z"/>
		<path fill="#414042" d="M778.6,543.4l0.7-0.1l0,1.2c-1.8,0.2-3.3,0.3-4.6,0.3c-1.7,0-2.9-0.5-3.6-1.5c-0.7-1-1-2.6-1-4.7
			c0-4.2,1.6-6.3,4.9-6.3c1.6,0,2.8,0.5,3.6,1.4s1.2,2.3,1.2,4.3l0,1.2h-8.2c0,1.5,0.3,2.6,0.8,3.3s1.4,1.1,2.6,1.1
			S777.4,543.5,778.6,543.4z M771.6,538h6.8c0-1.6-0.3-2.7-0.8-3.4c-0.5-0.7-1.4-1-2.5-1c-1.1,0-2,0.3-2.6,1
			C771.9,535.3,771.6,536.4,771.6,538z"/>
		<path fill="#414042" d="M784.2,544.6h-1.4v-12h1.4v0.9c1.3-0.8,2.6-1.1,3.9-1.1c1.6,0,2.7,0.4,3.2,1.3s0.8,2.4,0.8,4.7v6.3h-1.4
			v-6.2c0-1.8-0.2-3.1-0.5-3.7c-0.4-0.6-1.1-1-2.3-1c-0.6,0-1.1,0.1-1.8,0.3c-0.6,0.2-1.1,0.3-1.4,0.5l-0.5,0.2V544.6z"/>
		<path fill="#414042" d="M803.8,536.1v6.4c0.1,0.6,0.6,0.9,1.6,1.1l-0.1,1.2c-1.2,0-2.1-0.3-2.7-1c-1.5,0.7-3,1-4.5,1
			c-1.1,0-1.9-0.3-2.4-0.9c-0.6-0.6-0.8-1.5-0.8-2.6c0-1.1,0.3-2,0.9-2.5s1.5-0.9,2.7-1l4.1-0.4v-1.1c0-0.9-0.2-1.5-0.6-1.9
			c-0.4-0.4-0.9-0.6-1.6-0.6c-1,0-2.4,0.1-4,0.3l-0.7,0.1l-0.1-1.2c1.8-0.3,3.3-0.5,4.6-0.5c1.3,0,2.3,0.3,2.9,0.9
			S803.8,534.8,803.8,536.1z M796.3,541.1c0,1.6,0.7,2.4,2,2.4c0.6,0,1.2-0.1,1.9-0.2c0.7-0.1,1.2-0.3,1.6-0.4l0.6-0.2v-4.3
			l-3.9,0.4c-0.8,0.1-1.3,0.3-1.7,0.7C796.4,539.9,796.3,540.4,796.3,541.1z"/>
		<path fill="#414042" d="M808.9,544.6h-1.4v-12h1.4v0.9c1.3-0.8,2.6-1.1,3.9-1.1c1.6,0,2.7,0.4,3.2,1.3s0.8,2.4,0.8,4.7v6.3h-1.4
			v-6.2c0-1.8-0.2-3.1-0.5-3.7c-0.4-0.6-1.1-1-2.3-1c-0.6,0-1.1,0.1-1.8,0.3c-0.6,0.2-1.1,0.3-1.4,0.5l-0.5,0.2V544.6z"/>
		<path fill="#414042" d="M824.8,532.3c0.7,0,1.6,0.1,2.6,0.2l0.6,0.1l-0.1,1.2c-1.3-0.2-2.2-0.2-2.8-0.2c-1.4,0-2.4,0.3-2.9,1
			c-0.5,0.7-0.8,2-0.8,3.8c0,1.9,0.2,3.2,0.7,3.9c0.5,0.7,1.5,1.1,3,1.1l2.9-0.2l0,1.2c-1.4,0.2-2.5,0.3-3.2,0.3
			c-1.9,0-3.2-0.5-3.9-1.4s-1-2.6-1-4.9s0.4-3.9,1.1-4.8S823,532.3,824.8,532.3z"/>
		<path fill="#414042" d="M838.5,543.4l0.7-0.1l0,1.2c-1.8,0.2-3.3,0.3-4.6,0.3c-1.7,0-2.9-0.5-3.6-1.5c-0.7-1-1-2.6-1-4.7
			c0-4.2,1.6-6.3,4.9-6.3c1.6,0,2.8,0.5,3.6,1.4s1.2,2.3,1.2,4.3l0,1.2h-8.2c0,1.5,0.3,2.6,0.8,3.3s1.4,1.1,2.6,1.1
			S837.3,543.5,838.5,543.4z M831.5,538h6.8c0-1.6-0.3-2.7-0.8-3.4c-0.5-0.7-1.4-1-2.5-1c-1.1,0-2,0.3-2.6,1
			C831.8,535.3,831.5,536.4,831.5,538z"/>
	</g>
	<g>
		<path fill="#414042" d="M1079.1,100.6V83.9h2.8l5.2,14.6l5.1-14.6h2.8v16.7h-1.5V85.5h-0.3l-5.2,14.6h-1.8l-5.2-14.6h-0.3v15.1
			H1079.1z"/>
		<path fill="#414042" d="M1107.1,92.2v6.4c0.1,0.6,0.6,0.9,1.6,1.1l-0.1,1.2c-1.2,0-2.1-0.3-2.7-1c-1.5,0.7-3,1-4.5,1
			c-1.1,0-1.9-0.3-2.4-0.9c-0.6-0.6-0.8-1.5-0.8-2.6c0-1.1,0.3-2,0.9-2.5c0.6-0.6,1.5-0.9,2.7-1l4.1-0.4v-1.1c0-0.9-0.2-1.5-0.6-1.9
			c-0.4-0.4-0.9-0.6-1.6-0.6c-1,0-2.4,0.1-4,0.3l-0.7,0.1l-0.1-1.2c1.8-0.3,3.3-0.5,4.6-0.5c1.3,0,2.3,0.3,2.9,0.9
			S1107.1,90.9,1107.1,92.2z M1099.6,97.2c0,1.6,0.7,2.4,2,2.4c0.6,0,1.2-0.1,1.9-0.2c0.7-0.1,1.2-0.3,1.6-0.4l0.6-0.2v-4.3
			l-3.9,0.4c-0.8,0.1-1.3,0.3-1.7,0.7C1099.7,95.9,1099.6,96.5,1099.6,97.2z"/>
		<path fill="#414042" d="M1116.9,89.9h-4v5.9c0,1.6,0.1,2.6,0.3,3c0.2,0.5,0.8,0.7,1.6,0.7l2.2-0.2l0.1,1.2
			c-1.1,0.2-1.9,0.2-2.4,0.2c-1.2,0-2.1-0.3-2.5-0.9c-0.5-0.6-0.7-1.7-0.7-3.4v-6.6h-1.8v-1.3h1.8v-3.8h1.4v3.8h4V89.9z"/>
		<path fill="#414042" d="M1127.1,99.4l0.7-0.1l0,1.2c-1.8,0.2-3.3,0.3-4.6,0.3c-1.7,0-2.9-0.5-3.6-1.5c-0.7-1-1-2.6-1-4.7
			c0-4.2,1.6-6.3,4.9-6.3c1.6,0,2.8,0.5,3.6,1.4s1.2,2.3,1.2,4.3l0,1.2h-8.2c0,1.5,0.3,2.6,0.8,3.3s1.4,1.1,2.6,1.1
			S1125.9,99.5,1127.1,99.4z M1120.1,94h6.8c0-1.6-0.3-2.7-0.8-3.4c-0.5-0.7-1.4-1-2.5-1c-1.1,0-2,0.3-2.6,1
			C1120.4,91.4,1120.1,92.5,1120.1,94z"/>
		<path fill="#414042" d="M1131.2,100.6v-12h1.4v1.7c0.6-0.4,1.3-0.8,2.2-1.2c0.9-0.4,1.6-0.6,2.4-0.8v1.4c-0.7,0.1-1.4,0.4-2.2,0.7
			c-0.8,0.3-1.3,0.6-1.8,0.8l-0.6,0.4v9H1131.2z"/>
		<path fill="#414042" d="M1139.4,85.6v-1.8h1.4v1.8H1139.4z M1139.4,100.6v-12h1.4v12H1139.4z"/>
		<path fill="#414042" d="M1152.7,92.2v6.4c0.1,0.6,0.6,0.9,1.6,1.1l-0.1,1.2c-1.2,0-2.1-0.3-2.7-1c-1.5,0.7-3,1-4.5,1
			c-1.1,0-1.9-0.3-2.4-0.9c-0.6-0.6-0.8-1.5-0.8-2.6c0-1.1,0.3-2,0.9-2.5c0.6-0.6,1.5-0.9,2.7-1l4.1-0.4v-1.1c0-0.9-0.2-1.5-0.6-1.9
			c-0.4-0.4-0.9-0.6-1.6-0.6c-1,0-2.4,0.1-4,0.3l-0.7,0.1l-0.1-1.2c1.8-0.3,3.3-0.5,4.6-0.5c1.3,0,2.3,0.3,2.9,0.9
			S1152.7,90.9,1152.7,92.2z M1145.1,97.2c0,1.6,0.7,2.4,2,2.4c0.6,0,1.2-0.1,1.9-0.2c0.7-0.1,1.2-0.3,1.6-0.4l0.6-0.2v-4.3
			l-3.9,0.4c-0.8,0.1-1.3,0.3-1.7,0.7C1145.3,95.9,1145.1,96.5,1145.1,97.2z"/>
		<path fill="#414042" d="M1156.5,100.6V83.3h1.4v17.3H1156.5z"/>
		<path fill="#414042" d="M1171.8,85c-2.6,0-3.9,1-3.9,3c0,1.2,0.3,1.9,0.9,2.3c0.6,0.4,1.7,0.8,3.4,1.1c1.7,0.3,2.9,0.8,3.6,1.4
			c0.7,0.6,1.1,1.6,1.1,3c0,1.8-0.4,3.1-1.3,3.9s-2.2,1.2-3.9,1.2c-1.2,0-2.7-0.1-4.3-0.3l-0.9-0.1l0.2-1.3c2.2,0.3,3.9,0.4,5.1,0.4
			c1.2,0,2.1-0.3,2.7-0.9s0.9-1.4,0.9-2.6c0-1.1-0.3-1.9-0.8-2.3c-0.6-0.4-1.4-0.7-2.6-0.9c-1.2-0.2-2.1-0.4-2.7-0.6
			c-0.6-0.2-1.1-0.4-1.6-0.8c-0.5-0.3-0.8-0.8-1-1.3s-0.3-1.2-0.3-2c0-2.9,1.8-4.4,5.3-4.4c1.1,0,2.4,0.1,4.1,0.3l0.8,0.1l-0.1,1.3
			C1174.3,85.1,1172.7,85,1171.8,85z"/>
		<path fill="#414042" d="M1185.8,89.9h-4v5.9c0,1.6,0.1,2.6,0.3,3c0.2,0.5,0.8,0.7,1.6,0.7l2.2-0.2l0.1,1.2
			c-1.1,0.2-1.9,0.2-2.4,0.2c-1.2,0-2.1-0.3-2.5-0.9c-0.5-0.6-0.7-1.7-0.7-3.4v-6.6h-1.8v-1.3h1.8v-3.8h1.4v3.8h4V89.9z"/>
		<path fill="#414042" d="M1187.5,94.6c0-2.3,0.4-3.9,1.1-4.8c0.8-0.9,2.1-1.4,3.9-1.4s3.1,0.5,3.9,1.4c0.8,0.9,1.1,2.5,1.1,4.8
			s-0.3,3.9-1,4.8c-0.7,1-2,1.4-4,1.4s-3.3-0.5-4-1.4S1187.5,96.8,1187.5,94.6z M1189,94.5c0,1.9,0.2,3.2,0.7,3.9
			c0.4,0.7,1.4,1.1,2.9,1.1c1.5,0,2.4-0.4,2.9-1.1c0.4-0.7,0.7-2,0.7-3.9c0-1.9-0.3-3.2-0.8-3.9c-0.5-0.7-1.4-1-2.8-1
			c-1.4,0-2.3,0.3-2.8,1C1189.3,91.4,1189,92.6,1189,94.5z"/>
		<path fill="#414042" d="M1200.7,100.6v-12h1.4v1.7c0.6-0.4,1.3-0.8,2.2-1.2c0.9-0.4,1.6-0.6,2.4-0.8v1.4c-0.7,0.1-1.4,0.4-2.2,0.7
			c-0.8,0.3-1.3,0.6-1.8,0.8l-0.6,0.4v9H1200.7z"/>
		<path fill="#414042" d="M1217.1,92.2v6.4c0.1,0.6,0.6,0.9,1.6,1.1l-0.1,1.2c-1.2,0-2.1-0.3-2.7-1c-1.5,0.7-3,1-4.5,1
			c-1.1,0-1.9-0.3-2.4-0.9c-0.6-0.6-0.8-1.5-0.8-2.6c0-1.1,0.3-2,0.9-2.5c0.6-0.6,1.5-0.9,2.7-1l4.1-0.4v-1.1c0-0.9-0.2-1.5-0.6-1.9
			c-0.4-0.4-0.9-0.6-1.6-0.6c-1,0-2.4,0.1-4,0.3l-0.7,0.1l-0.1-1.2c1.8-0.3,3.3-0.5,4.6-0.5c1.3,0,2.3,0.3,2.9,0.9
			S1217.1,90.9,1217.1,92.2z M1209.5,97.2c0,1.6,0.7,2.4,2,2.4c0.6,0,1.2-0.1,1.9-0.2c0.7-0.1,1.2-0.3,1.6-0.4l0.6-0.2v-4.3
			l-3.9,0.4c-0.8,0.1-1.3,0.3-1.7,0.7C1209.7,95.9,1209.5,96.5,1209.5,97.2z"/>
		<path fill="#414042" d="M1230.5,102.4c0,1.4-0.4,2.3-1.3,3s-2.2,0.9-4.1,0.9s-3.1-0.3-3.8-0.8s-1.1-1.5-1.1-2.9
			c0-0.7,0.1-1.2,0.4-1.6c0.3-0.4,0.8-0.9,1.5-1.4c-0.4-0.3-0.6-0.8-0.6-1.6c0-0.3,0.2-0.8,0.6-1.5l0.2-0.4c-1.3-0.5-2-1.8-2-3.6
			c0-2.7,1.4-4.1,4.3-4.1c0.8,0,1.5,0.1,2.2,0.2l0.4,0.1l3.5-0.1v1.3l-2.4,0c0.6,0.6,0.9,1.5,0.9,2.8c0,1.3-0.4,2.3-1.1,2.9
			c-0.7,0.6-1.9,0.9-3.4,0.9c-0.5,0-0.9,0-1.2-0.1c-0.3,0.8-0.5,1.3-0.5,1.5c0,0.5,0.2,0.9,0.5,1c0.3,0.1,1.2,0.2,2.8,0.2
			c1.6,0,2.7,0.2,3.3,0.7C1230.2,100.2,1230.5,101.1,1230.5,102.4z M1221.7,102.5c0,1,0.2,1.6,0.7,2c0.5,0.4,1.4,0.6,2.8,0.6
			s2.4-0.2,3-0.6c0.6-0.4,0.9-1,0.9-2s-0.2-1.5-0.6-1.8c-0.4-0.3-1.3-0.4-2.5-0.4l-2.7-0.1c-0.6,0.4-1,0.8-1.2,1.1
			C1221.8,101.6,1221.7,102,1221.7,102.5z M1221.9,92.4c0,1,0.2,1.8,0.7,2.2s1.2,0.6,2.3,0.6c1.1,0,1.8-0.2,2.3-0.6
			c0.4-0.4,0.7-1.1,0.7-2.2s-0.2-1.8-0.7-2.2s-1.2-0.6-2.3-0.6c-1.1,0-1.8,0.2-2.3,0.7S1221.9,91.4,1221.9,92.4z"/>
		<path fill="#414042" d="M1240.9,99.4l0.7-0.1l0,1.2c-1.8,0.2-3.3,0.3-4.6,0.3c-1.7,0-2.9-0.5-3.6-1.5c-0.7-1-1-2.6-1-4.7
			c0-4.2,1.6-6.3,4.9-6.3c1.6,0,2.8,0.5,3.6,1.4s1.2,2.3,1.2,4.3l0,1.2h-8.2c0,1.5,0.3,2.6,0.8,3.3s1.4,1.1,2.6,1.1
			S1239.7,99.5,1240.9,99.4z M1233.9,94h6.8c0-1.6-0.3-2.7-0.8-3.4c-0.5-0.7-1.4-1-2.5-1c-1.1,0-2,0.3-2.6,1
			C1234.2,91.4,1233.9,92.5,1233.9,94z"/>
	</g>
	<g>
		<path fill="#414042" d="M1011.4,269.9v-16.7h2.8l5.2,14.6l5.1-14.6h2.8v16.7h-1.5v-15.1h-0.3l-5.2,14.6h-1.8l-5.2-14.6h-0.3v15.1
			H1011.4z"/>
		<path fill="#414042" d="M1039.4,261.5v6.4c0.1,0.6,0.6,0.9,1.6,1.1l-0.1,1.2c-1.2,0-2.1-0.3-2.7-1c-1.5,0.7-3,1-4.5,1
			c-1.1,0-1.9-0.3-2.4-0.9c-0.6-0.6-0.8-1.5-0.8-2.6c0-1.1,0.3-2,0.9-2.5c0.6-0.6,1.5-0.9,2.7-1l4.1-0.4v-1.1c0-0.9-0.2-1.5-0.6-1.9
			c-0.4-0.4-0.9-0.6-1.6-0.6c-1,0-2.4,0.1-4,0.3l-0.7,0.1l-0.1-1.2c1.8-0.3,3.3-0.5,4.6-0.5c1.3,0,2.3,0.3,2.9,0.9
			S1039.4,260.2,1039.4,261.5z M1031.9,266.5c0,1.6,0.7,2.4,2,2.4c0.6,0,1.2-0.1,1.9-0.2c0.7-0.1,1.2-0.3,1.6-0.4l0.6-0.2v-4.3
			l-3.9,0.4c-0.8,0.1-1.3,0.3-1.7,0.7C1032.1,265.2,1031.9,265.8,1031.9,266.5z"/>
		<path fill="#414042" d="M1049.2,259.2h-4v5.9c0,1.6,0.1,2.6,0.3,3c0.2,0.5,0.8,0.7,1.6,0.7l2.2-0.2l0.1,1.2
			c-1.1,0.2-1.9,0.2-2.4,0.2c-1.2,0-2.1-0.3-2.5-0.9c-0.5-0.6-0.7-1.7-0.7-3.4v-6.6h-1.8v-1.3h1.8v-3.8h1.4v3.8h4V259.2z"/>
		<path fill="#414042" d="M1059.4,268.7l0.7-0.1l0,1.2c-1.8,0.2-3.3,0.3-4.6,0.3c-1.7,0-2.9-0.5-3.6-1.5c-0.7-1-1-2.6-1-4.7
			c0-4.2,1.6-6.3,4.9-6.3c1.6,0,2.8,0.5,3.6,1.4s1.2,2.3,1.2,4.3l0,1.2h-8.2c0,1.5,0.3,2.6,0.8,3.3s1.4,1.1,2.6,1.1
			S1058.2,268.8,1059.4,268.7z M1052.4,263.3h6.8c0-1.6-0.3-2.7-0.8-3.4c-0.5-0.7-1.4-1-2.5-1c-1.1,0-2,0.3-2.6,1
			C1052.7,260.7,1052.4,261.8,1052.4,263.3z"/>
		<path fill="#414042" d="M1063.6,269.9v-12h1.4v1.7c0.6-0.4,1.3-0.8,2.2-1.2c0.9-0.4,1.6-0.6,2.4-0.8v1.4c-0.7,0.1-1.4,0.4-2.2,0.7
			c-0.8,0.3-1.3,0.6-1.8,0.8l-0.6,0.4v9H1063.6z"/>
		<path fill="#414042" d="M1071.7,254.9v-1.8h1.4v1.8H1071.7z M1071.7,269.9v-12h1.4v12H1071.7z"/>
		<path fill="#414042" d="M1085,261.5v6.4c0.1,0.6,0.6,0.9,1.6,1.1l-0.1,1.2c-1.2,0-2.1-0.3-2.7-1c-1.5,0.7-3,1-4.5,1
			c-1.1,0-1.9-0.3-2.4-0.9c-0.6-0.6-0.8-1.5-0.8-2.6c0-1.1,0.3-2,0.9-2.5c0.6-0.6,1.5-0.9,2.7-1l4.1-0.4v-1.1c0-0.9-0.2-1.5-0.6-1.9
			c-0.4-0.4-0.9-0.6-1.6-0.6c-1,0-2.4,0.1-4,0.3l-0.7,0.1l-0.1-1.2c1.8-0.3,3.3-0.5,4.6-0.5c1.3,0,2.3,0.3,2.9,0.9
			S1085,260.2,1085,261.5z M1077.4,266.5c0,1.6,0.7,2.4,2,2.4c0.6,0,1.2-0.1,1.9-0.2c0.7-0.1,1.2-0.3,1.6-0.4l0.6-0.2v-4.3l-3.9,0.4
			c-0.8,0.1-1.3,0.3-1.7,0.7C1077.6,265.2,1077.4,265.8,1077.4,266.5z"/>
		<path fill="#414042" d="M1088.8,269.9v-17.3h1.4v17.3H1088.8z"/>
		<path fill="#414042" d="M1104.1,254.3c-2.6,0-3.9,1-3.9,3c0,1.2,0.3,1.9,0.9,2.3c0.6,0.4,1.7,0.8,3.4,1.1c1.7,0.3,2.9,0.8,3.6,1.4
			c0.7,0.6,1.1,1.6,1.1,3c0,1.8-0.4,3.1-1.3,3.9s-2.2,1.2-3.9,1.2c-1.2,0-2.7-0.1-4.3-0.3l-0.9-0.1l0.2-1.3c2.2,0.3,3.9,0.4,5.1,0.4
			c1.2,0,2.1-0.3,2.7-0.9s0.9-1.4,0.9-2.6c0-1.1-0.3-1.9-0.8-2.3c-0.6-0.4-1.4-0.7-2.6-0.9c-1.2-0.2-2.1-0.4-2.7-0.6
			c-0.6-0.2-1.1-0.4-1.6-0.8c-0.5-0.3-0.8-0.8-1-1.3s-0.3-1.2-0.3-2c0-2.9,1.8-4.4,5.3-4.4c1.1,0,2.4,0.1,4.1,0.3l0.8,0.1l-0.1,1.3
			C1106.6,254.4,1105,254.3,1104.1,254.3z"/>
		<path fill="#414042" d="M1118.1,259.2h-4v5.9c0,1.6,0.1,2.6,0.3,3c0.2,0.5,0.8,0.7,1.6,0.7l2.2-0.2l0.1,1.2
			c-1.1,0.2-1.9,0.2-2.4,0.2c-1.2,0-2.1-0.3-2.5-0.9c-0.5-0.6-0.7-1.7-0.7-3.4v-6.6h-1.8v-1.3h1.8v-3.8h1.4v3.8h4V259.2z"/>
		<path fill="#414042" d="M1128.6,261.5v6.4c0.1,0.6,0.6,0.9,1.6,1.1l-0.1,1.2c-1.2,0-2.1-0.3-2.7-1c-1.5,0.7-3,1-4.5,1
			c-1.1,0-1.9-0.3-2.4-0.9c-0.6-0.6-0.8-1.5-0.8-2.6c0-1.1,0.3-2,0.9-2.5c0.6-0.6,1.5-0.9,2.7-1l4.1-0.4v-1.1c0-0.9-0.2-1.5-0.6-1.9
			c-0.4-0.4-0.9-0.6-1.6-0.6c-1,0-2.4,0.1-4,0.3l-0.7,0.1l-0.1-1.2c1.8-0.3,3.3-0.5,4.6-0.5c1.3,0,2.3,0.3,2.9,0.9
			S1128.6,260.2,1128.6,261.5z M1121.1,266.5c0,1.6,0.7,2.4,2,2.4c0.6,0,1.2-0.1,1.9-0.2c0.7-0.1,1.2-0.3,1.6-0.4l0.6-0.2v-4.3
			l-3.9,0.4c-0.8,0.1-1.3,0.3-1.7,0.7C1121.2,265.2,1121.1,265.8,1121.1,266.5z"/>
		<path fill="#414042" d="M1142,271.8c0,1.4-0.4,2.3-1.3,3s-2.2,0.9-4.1,0.9s-3.1-0.3-3.8-0.8s-1.1-1.5-1.1-2.9
			c0-0.7,0.1-1.2,0.4-1.6c0.3-0.4,0.8-0.9,1.5-1.4c-0.4-0.3-0.6-0.8-0.6-1.6c0-0.3,0.2-0.8,0.6-1.5l0.2-0.4c-1.3-0.5-2-1.8-2-3.6
			c0-2.7,1.4-4.1,4.3-4.1c0.8,0,1.5,0.1,2.2,0.2l0.4,0.1l3.5-0.1v1.3l-2.4,0c0.6,0.6,0.9,1.5,0.9,2.8c0,1.3-0.4,2.3-1.1,2.9
			c-0.7,0.6-1.9,0.9-3.4,0.9c-0.5,0-0.9,0-1.2-0.1c-0.3,0.8-0.5,1.3-0.5,1.5c0,0.5,0.2,0.9,0.5,1c0.3,0.1,1.2,0.2,2.8,0.2
			c1.6,0,2.7,0.2,3.3,0.7C1141.7,269.5,1142,270.4,1142,271.8z M1133.2,271.8c0,1,0.2,1.6,0.7,2c0.5,0.4,1.4,0.6,2.8,0.6
			s2.4-0.2,3-0.6c0.6-0.4,0.9-1,0.9-2s-0.2-1.5-0.6-1.8c-0.4-0.3-1.3-0.4-2.5-0.4l-2.7-0.1c-0.6,0.4-1,0.8-1.2,1.1
			C1133.3,270.9,1133.2,271.3,1133.2,271.8z M1133.4,261.8c0,1,0.2,1.8,0.7,2.2s1.2,0.6,2.3,0.6c1.1,0,1.8-0.2,2.3-0.6
			c0.4-0.4,0.7-1.1,0.7-2.2s-0.2-1.8-0.7-2.2s-1.2-0.6-2.3-0.6c-1.1,0-1.8,0.2-2.3,0.7S1133.4,260.7,1133.4,261.8z"/>
		<path fill="#414042" d="M1144.5,254.9v-1.8h1.4v1.8H1144.5z M1144.5,269.9v-12h1.4v12H1144.5z"/>
		<path fill="#414042" d="M1151,269.9h-1.4v-12h1.4v0.9c1.3-0.8,2.6-1.1,3.9-1.1c1.6,0,2.7,0.4,3.2,1.3s0.8,2.4,0.8,4.7v6.3h-1.4
			v-6.2c0-1.8-0.2-3.1-0.5-3.7c-0.4-0.6-1.1-1-2.3-1c-0.6,0-1.1,0.1-1.8,0.3c-0.6,0.2-1.1,0.3-1.4,0.5l-0.5,0.2V269.9z"/>
		<path fill="#414042" d="M1172.1,271.8c0,1.4-0.4,2.3-1.3,3s-2.2,0.9-4.1,0.9s-3.1-0.3-3.8-0.8s-1.1-1.5-1.1-2.9
			c0-0.7,0.1-1.2,0.4-1.6c0.3-0.4,0.8-0.9,1.5-1.4c-0.4-0.3-0.6-0.8-0.6-1.6c0-0.3,0.2-0.8,0.6-1.5l0.2-0.4c-1.3-0.5-2-1.8-2-3.6
			c0-2.7,1.4-4.1,4.3-4.1c0.8,0,1.5,0.1,2.2,0.2l0.4,0.1l3.5-0.1v1.3l-2.4,0c0.6,0.6,0.9,1.5,0.9,2.8c0,1.3-0.4,2.3-1.1,2.9
			c-0.7,0.6-1.9,0.9-3.4,0.9c-0.5,0-0.9,0-1.2-0.1c-0.3,0.8-0.5,1.3-0.5,1.5c0,0.5,0.2,0.9,0.5,1c0.3,0.1,1.2,0.2,2.8,0.2
			c1.6,0,2.7,0.2,3.3,0.7C1171.7,269.5,1172.1,270.4,1172.1,271.8z M1163.3,271.8c0,1,0.2,1.6,0.7,2c0.5,0.4,1.4,0.6,2.8,0.6
			s2.4-0.2,3-0.6c0.6-0.4,0.9-1,0.9-2s-0.2-1.5-0.6-1.8c-0.4-0.3-1.3-0.4-2.5-0.4l-2.7-0.1c-0.6,0.4-1,0.8-1.2,1.1
			C1163.4,270.9,1163.3,271.3,1163.3,271.8z M1163.4,261.8c0,1,0.2,1.8,0.7,2.2s1.2,0.6,2.3,0.6c1.1,0,1.8-0.2,2.3-0.6
			c0.4-0.4,0.7-1.1,0.7-2.2s-0.2-1.8-0.7-2.2s-1.2-0.6-2.3-0.6c-1.1,0-1.8,0.2-2.3,0.7S1163.4,260.7,1163.4,261.8z"/>
	</g>
</g>
<g id="buttons">
	<a tooltip="utility-trench-tt" xlink:href="#">
		<g>
			<circle fill="#9DA7B1" cx="1009.3" cy="142.3" r="13.5"/>
			<polygon fill="#FFFFFF" points="1009.7,137 1008.8,137 1008.8,141.9 1004,141.9 1004,142.7 1008.8,142.7 1008.8,147.6 
				1009.7,147.6 1009.7,142.7 1014.7,142.7 1014.7,141.9 1009.7,141.9 		"/>
		</g>
	</a>
	<a tooltip="material-storage-tt" xlink:href="#">
		<g>
			<circle fill="#9DA7B1" cx="1267.3" cy="93.1" r="13.5"/>
			<polygon fill="#FFFFFF" points="1267.7,87.9 1266.8,87.9 1266.8,92.8 1261.9,92.8 1261.9,93.5 1266.8,93.5 1266.8,98.5 
				1267.7,98.5 1267.7,93.5 1272.6,93.5 1272.6,92.8 1267.7,92.8 		"/>
		</g>
	</a>
	<a tooltip="material-staging-tt" xlink:href="#">
		<g>
			<circle fill="#9DA7B1" cx="1199.5" cy="260.9" r="13.5"/>
			<polygon fill="#FFFFFF" points="1199.9,255.6 1199,255.6 1199,260.5 1194.2,260.5 1194.2,261.3 1199,261.3 1199,266.2 
				1199.9,266.2 1199.9,261.3 1204.8,261.3 1204.8,260.5 1199.9,260.5 		"/>
		</g>
	</a>
	<a tooltip="tanks-tt" xlink:href="#">
		<g>
			<circle fill="#9DA7B1" cx="1221.4" cy="640.9" r="13.5"/>
			<polygon fill="#FFFFFF" points="1221.8,635.7 1220.9,635.7 1220.9,640.5 1216,640.5 1216,641.3 1220.9,641.3 1220.9,646.3 
				1221.8,646.3 1221.8,641.3 1226.7,641.3 1226.7,640.5 1221.8,640.5 		"/>
		</g>
	</a>
	<a tooltip="boiler-tt" xlink:href="#">
		<g>
			<circle fill="#9DA7B1" cx="1025.2" cy="620.9" r="13.5"/>
			<polygon fill="#FFFFFF" points="1025.6,615.7 1024.7,615.7 1024.7,620.5 1019.9,620.5 1019.9,621.3 1024.7,621.3 1024.7,626.3 
				1025.6,626.3 1025.6,621.3 1030.6,621.3 1030.6,620.5 1025.6,620.5 		"/>
		</g>
	</a>
	<a tooltip="maintenance-tt" xlink:href="#">
		<g>
			<circle fill="#9DA7B1" cx="864.1" cy="536.8" r="13.5"/>
			<polygon fill="#FFFFFF" points="864.5,531.6 863.6,531.6 863.6,536.4 858.8,536.4 858.8,537.2 863.6,537.2 863.6,542.2 
				864.5,542.2 864.5,537.2 869.4,537.2 869.4,536.4 864.5,536.4 		"/>
		</g>
	</a>
	<a tooltip="production-area-tt" xlink:href="#">
		<g>
			<circle fill="#9DA7B1" cx="471.1" cy="412.4" r="13.5"/>
			<polygon fill="#FFFFFF" points="471.5,407.1 470.6,407.1 470.6,412 465.8,412 465.8,412.8 470.6,412.8 470.6,417.7 471.5,417.7 
				471.5,412.8 476.5,412.8 476.5,412 471.5,412 		"/>
		</g>
	</a>
	<a tooltip="scale-tt" xlink:href="#">
		<g>
			<circle fill="#9DA7B1" cx="161.6" cy="386.3" r="13.5"/>
			<polygon fill="#FFFFFF" points="162,381.1 161.1,381.1 161.1,385.9 156.2,385.9 156.2,386.7 161.1,386.7 161.1,391.7 162,391.7 
				162,386.7 166.9,386.7 166.9,385.9 162,385.9 		"/>
		</g>
	</a>
	<a tooltip="beta-tt" xlink:href="#">
		<g>
			<circle fill="#9DA7B1" cx="1086.5" cy="572.9" r="13.5"/>
			<polygon fill="#FFFFFF" points="1086.9,567.7 1086.1,567.7 1086.1,572.5 1081.2,572.5 1081.2,573.3 1086.1,573.3 1086.1,578.3 
				1086.9,578.3 1086.9,573.3 1091.9,573.3 1091.9,572.5 1086.9,572.5 		"/>
		</g>
	</a>
	<a tooltip="kettle-tt" xlink:href="#">
		<g>
			<circle fill="#9DA7B1" cx="646.5" cy="95.8" r="13.5"/>
			<polygon fill="#FFFFFF" points="646.9,90.6 646,90.6 646,95.4 641.1,95.4 641.1,96.2 646,96.2 646,101.1 646.9,101.1 646.9,96.2 
				651.8,96.2 651.8,95.4 646.9,95.4 		"/>
		</g>
	</a>
	<a tooltip="fire-lane-tt" xlink:href="#">
		<g>
			<circle fill="#9DA7B1" cx="346.3" cy="27.9" r="13.5"/>
			<polygon fill="#FFFFFF" points="346.7,22.7 345.8,22.7 345.8,27.5 341,27.5 341,28.3 345.8,28.3 345.8,33.2 346.7,33.2 
				346.7,28.3 351.6,28.3 351.6,27.5 346.7,27.5 		"/>
		</g>
	</a>
</g>
</svg>
